<?xml version="1.0" encoding="UTF-8"?>
<svg id="Camada_1" xmlns="http://www.w3.org/2000/svg" version="1.1" viewBox="0 0 800 600" fill="#FFFFFF">
  <!-- Generator: Adobe Illustrator 30.1.0, SVG Export Plug-In . SVG Version: 2.1.1 Build 136)  -->
  <path d="M5,324.1c.7.2,1.1.9,1.3,1.5-.5.1-1.1.1-1.6.2,0-.3-.1-.8.3-1.7Z"/>
  <path d="M11.1,340c-.5-.7-.6-1.5-.9-2.1.6.1,1.3.2,2,.4-.3.6-.5,1.2-1.1,1.7Z"/>
  <g>
    <path d="M336.1,82.9s.6-.1,1.3,0c3.9.5,8.3,2.3,10,.9,6-4.9,12.6-3.3,19.3-3.3.4,1.5.7,2.6.6,2.4,4,.6,7.7,1.1,11.4,2,1.1,6.2,5.4,3.5,8.7,3.9.1.2.1.7,0,1.1,0,.6-.1.9-.4,1.5-3.1,1-5.9,1.8-8.7,2.1-5.7.5-11.5.6-17.4.9v1.6c12.1,0,24.2,0,36.5-.1.6,0,1.3-1.3,2.2-2.3,2.4.5,4.5,1.3,6.8,2.2.4-.7,1-2,2-3.2,4.5.5,8.6.9,12.7,1.3v-1.1c-.6-.4-1.2-.7-3.2-1.8,3.4.2,5.3.2,7,.5,17,2.8,34,5.6,50.9,8.7,9.4,1.7,18.8,3.4,27.9,6.2,10.4,3.3,20.3,8.1,30.5,12.2,3.9,1.6,7.8,3.1,11.7,4.6,11.1,4.3,22.3,8.6,33.3,13.5,0,1.8,0,3.2-.2,4.8-.2.5-.4.7-.4,1,.2-.4.4-.7,1-1.1,5.3,2.2,10,4.4,14.7,6.4-.6,3.1-1,5.1-1.3,7.2.4.4.7.9,1.1,1.2,2.4-1.6,4.9-3.1,7.6-4.6,1.8,0,4.3-.7,5.1.1,3.3,3.7,6.2,5.9,10.2.9,0,0,.5.2.9.4-.1,0-.5.1-.5.1-.2-.5-.4-1-.6-2,.6-1.6,1.2-2.7,1.8-3.8,14.1,9.3,28,18.6,42.1,28-.5.9-.9,1.6-1.3,2.4-2.7-1.1-5.4-2.2-8.6-3.7-1.2-.5-2-.5-2.6-.6.1.5.2,1,.4,1.6,1.5,1.8,2.9,3.8,4.4,5.6.5-.5.6-.6.7-.7-.4-.1-.6-.2-1-.4-.1,1.2-.7,2.9-.1,3.4.7.7,2.3.6,3.5.9,1.6.2,3.4.4,4.9,1,6.7,2.9,13.3,6.1,19.8,9.3,2.4,1.2,5,2.6,7.1,4.4,4.3,3.8,8.2,7.8,12.5,12.6.1,2.8,0,4.8-.6,6.6-2.4-1.1-4.4-2.2-6.5-3.2-.2,2.2.6,3.8,1.8,5.1,3.1,3.5,10.3,3.9,8.2,11.4-.1.6,1.7,1.7,2.9,2.4.5-.5.7-.6,1.2-.5-.1,3.7,1.1,5.6,4.9,5.3.1,0,.1-.1-.4.2,1,.5,2.4.7,4.3,1,1,.1,1.5.2,2.2.6,1,.7,1.8,1.2,2.6,1.7,1.7,0,3.4-.1,5.7.2,1.3.6,2.2.7,3.1.9.7.6,1.5,1.2,2,2.3-2.1.7-3.9,1.1-6.2,1.3-2.1-.7-3.7-1.6-5.3-2.4-.4.4-.6.9-1,1.2,2.2,1.8,4.4,3.7,6.7,5.9,1,.6,2.4,1.3,2.7,1,1.1-1.3,2-2.9,3.4-5.4,1.3,16.9,6.7,17.9,13.5,13,3.8,1.7,7.5,3.4,11.9,5.9,1.6,1,2.6,1.2,3.7,1.5-.5-1.1-1.1-2.2-1.6-3.3,5.7,4,11.7,7.8,17.1,12.4,3.3,2.8,5.7,6.8,8.9,10.8-1.2.4-1,.2-.7.2,4.9.5,10.5-1,14.1,3.9.5.7-.1,2.3-.4,3.5-.4,1.5-.9,2.8-1.5,4.4-3.7,4.8-7.7,9.9-11.5,15.3-2.4,3.5-4.5,5-8.7,2-2.8-2.1-5.7-1.5-6.1,3.1,0,.7-.6,1.5-1.2,2.1-5.3,5.6-10.5,11-15.7,16.6-6.2,6.7-11.5,14.4-18.6,19.9-3.8,2.9-1.6,6.7-4.4,9.2-3.1,2.7-5.4,6-8.3,8.8-6.5,6.2-13.2,12.2-20.3,18.7.9.7,2.7,2.2,5.6,4.8-1.7,1.8-4.4,4.6-7.2,7.5-.5.5-1.6.5-2.1,1.1-3.3,3.8-6.8,6.5-11.7,8.7-7.8,3.5-14.3,10-21.4,15.3-6.1,4.4-12.2,8.7-18.5,12.8-2.4,1.6-5.4,2.6-8.9,3.7-2.4-2.7-4-5.1-5.9-8,.1-.2.7-1.3,2.2-3.9-6.1,2.7-11.9,3.7-15,7-2.4,2.7-4.4,4.8-8,4.8-1.7,0-3.3-1.8-5.1-2.1-7.3-1-12.5,3.8-18.8,6.7,2.1,1.6,3.7,2.8,5.1,3.9q-2.8,4.9-13,4.6c.1,3.2.4,6.4.5,9.5,0,0-.1.1-.5,0-6.8-.1-13.3-.1-19.8-.1-.2,1-.5,2.1-.7,3.1,1.5.5,2.8,1.5,4.3,1.5,2,0,3.9-.7,5.9-1.2.1.4.2.7.4,1.2-9.8,4.5-19.7,9.1-30,13.6-4.9.9-9.4,1.7-14.2,2.4-4.5-2.1-16.6,1.5-19.2,5.1-1.3,2-3.4,3.5-5.3,5.4.4,2,.9,4.9,1.5,7.7-.5.1-1.1.1-2.3-.1-7.3-4.9-11.1-3.7-12.4,3.4-12.6,2.6-25.2,5.1-37.8,7.7-2.6-4.4-9.9-4.5-13.3-.7-.7.9-2,1.7-2.9,1.8-12.4.1-24.8.2-37.2.1-6.1-.1-12.2-.9-18.3-1.3-8.9-.7-18.1-.7-26.8-2.7-6-1.3-10.8.2-16.3,1-4.9.7-10.3-2.8-15.4-4.2-3.4-1-7.2-1.2-10.5-2.4-2.3-.9-4.2-2.8-7.6-4,.5,1.5.9,3.1,1.5,5.1-.2.1-1.6.5-3.4,1.2-.1-2.1-.2-3.8-.4-5.4-.5-.4-.7-.6-1.1-.7-11.3-2.7-22.5-5.3-33.8-8.3-9.4-2.6-18.8-5.4-28.1-8.6-9.2-3.3-18.5-5.9-27.5-9.9-5.6-2.6-11.3-4-15.7-8.8-2.1-2.3-6-2.9-9.7-4.6-1.3-.6-2-.7-2.7-.9.1-.5.2-.9,1-1.6,1.2-.7,2-1.1,2.7-1.7-7.3-1.2-6.7-8.4-11-13.9-1.7,4.3-3.3,8.1-4.8,11.9-1.5-1-2.6-1.7-3.5-2.4-8.4-5.4-16.8-11.1-25.4-16.3-5.6-3.4-11.7-5.9-17.4-9.2-1.1-.6-2.2-3.9-1.6-4.8,3.9-5.3-1-7.1-3.5-9.5-1.3-1.3-3.4-1.7-5.6-3.2-1.3-1.3-2.1-2.3-3.3-3.3-2.9-2.9-5.5-5.7-8.3-8.8-4.2-3.7-8-6.8-11.6-10.3.5-.6.6-1.1.7-2.1,0-1.3,0-2.3.2-3.3.1-.1.1-.5.1-.5,0,0-.4.5-.7.2-2.3-2.3-4.2-4.3-5.7-6-1.8,1.3-3.4,2.6-5.5,3.8-2.4-1.7-4.5-3.3-6.2-4.9.6-.6.9-1.1,1.1-1.6-.6.2-1.2.6-2.1.7-1.7-1.5-3.1-2.7-4-4.2,2.6-2.1,4.8-4,7.6-6.5-1.6-2.3-4-5.9-7.7-11.1-2.4,4.9-4.5,8.9-7,12.8-1.6-1.1-3.1-2-4.2-3.1-4.6-4.5-9.3-9.1-13.7-13.9-.4-1.5-1-2.7-1.5-3.8-.5.4-1.1.7-1.6,1.1.7,1.1,1.5,2.1,2,3.5-1.8-.7-3.4-1.8-4.9-3.3.4-1.6.6-2.8.9-4.6-2.2,1.1-3.5,1.8-4.8,2.6.1-.1-.1,0-.1-.4-.5-3.9-1.1-7.5-1.6-10.9-1.8,1-4.2,2.3-6.8,3.3-1.8-1.1-4.2-1.3-5-2.6-2.6-3.9-5.9-6-10.6-5.7-1.8-2.2-3.7-4.4-5.6-6.7,1-2,4.9-3.8,1.2-7.6-.6-.6.7-4,2-5.6,5.7-7.5,11.7-14.7,17.6-22,2.1-2.6,3.7-5.6,6-8.1,4.2-4.5,8.7-8.8,13.2-12.8,2.8-2.4,5.9-4.5,9.3-6.4.1,1.5-.2,2.6-.6,4,.1,3.2.2,5.9.5,8.7.5-.4,1.2-.6,1.5-1.1,7-9.8,15.8-17.9,24.6-26.1,2.2-2.1,2.9-5.9,4.4-8.9-.5-.2-1-.5-1.5-.7-.9.7-1.8,1.6-2.7,2.4-2.6,2.6-4.9,5.4-7.7,7.7-1.8,1.6-4.2,2.4-6.6,3.5-.4-1.7-.5-3.3-.5-5,7.8-7.5,15.4-15.3,23.7-22.4,9.7-8.3,19.9-15.9,29.8-23.9,1.3-1.1,2.2-2.7,3.3-4,1.8-2.3,3.5-4.8,5.6-6.4,2.9-1.8,6.1-3.4,8.9-5.5,9.3-7,18.3-14.2,27.6-21,7.1-5.3,14.3-10.4,21.8-15,21.7-13.5,43.5-26.5,65.3-39.9.5-.2,1.1-.9,1.6-.7,9.2,2.4,15.9-3.9,23.6-6.4,1.1-.4,2.6.2,3.9,1.2,2,3.7,3.8,6.5,5.9,9.7.4-.1,1.7-.5,2.9-.9,1.5-.5,2.9-1,4.9-1.5,2-.9,3.5-1.7,5.3-2.8,1.2-1.7,2.2-3.1,3.2-4.5-.5-.6-1.5-2.1-2.4-3.5l.4-.1c.7-.4,1.1-.9,1.7-1.2.9-.4,1.6-.7,2.7-1.1,1.6,0,2.7,0,4-.2,1.5-1.2,2.6-2.3,3.8-3.4-1.6-1.5-2.8-2.6-4.2-3.8.6-1.2,1.2-2.4,2.3-4.4,1.5,1.8,2.7,3.1,3.8,4.4-.2.5-.6,1.1-.9,1.6,3.2-.5,6.4-1,10.4-1.2,3.9,3.3,7.5,2.2,10.5-2.7.7-.4,1.1-.6,2-1,3.2.9,6,1.7,8.8,2.4.1-.2.4-.5.5-.7-2.6-3-4.8-5.2-7.1-7.4M303.4,102.1c-.1,0-.2,0-.7.1.1.2.2.2.7-.1M263.8,150.6c-.4.1-.7.4-2,.6-1.1,1.6-2.2,3.2-4,5.7,3.3-.6,4.8-.9,6-1.1-.4-1.6-.7-3.1-.6-4.5,0,0,.5.1.7.4h.5c-.1-.3-.1-.5-.6-1.1M110.6,380c.1,0,.4,0,.7-.1v-.5c.1,0-.4.4-.7.6M134.4,378.9h.4s-.5-.4-1-.9c-.6-.2-1.3-.5-2-1.3,1.2-1.5,2.4-2.9,4.4-4.2,1.8,1.6,3.7,3.2,4.9,5.3-.4,1.3-.6,2.8-1,4.2.4.1.9.2,1.2.4.4-1.6.9-3.1,2.1-4.4,10.2,10.8,24.2,15.7,36.3,23.6,10.6,7.1,21.4,13.9,32.7,19.6,10.8,5.4,22.1,9.8,33.6,13.3,13.2,4.2,26.8,7,40.1,10.3,10.2,2.6,20.2,5.5,30.5,7.8,7.1,1.6,14.1,4.5,21.9,3.5.1.2.4.5,1.1,1.5,4,.1,8.1.4,12.1.2,11.1-.5,21.5,4.4,32.9,3.2,6-.6,12.2,2,18.5,3.1,0,0-.1,0-.5.7.2.5.4,1,.5,2.2,0,.2,0,.5-.2.9v.4s.2-.5,1-.2c1.7,2.1-2.1,7.8,5,6.6-2.6-5.3-2-8.8,4.5-9.5.7-.1,1.3-1.8,2.9-3.3.7-.4,1.3-1,2.1-1.1,13.7-1.7,27.5-3.4,41.2-5,1.2-.1,2.4.9,2.1,2.7-.4.6-.7,1.2-1.8,2.3-5,2.3-9.9,4.6-14.9,7.1.1.4.2.9.4,1.2,2.9-.5,5.7-1,9.4-1.3,1,.5,2.2.7,3.1,1.6,2.1,2.1,3.9,4.3,7.1,8,0-6.6,1.8-9.1,6.6-7.5.1.5.2,1.1.5,1.6.2-.7.5-1.5,1.2-3.1,2.7-1.3,5.4-2.7,8.2-3.9h.4s-.4-.4-.2-1.1c1.1-.5,2.3-1.1,4.2-1,1.8.2,3.7.4,6.1.6h2.7c.5,0,1.1,0,1.6.9.9,1.3,1.6,2.7,3.3,3.9,6.1-1.5,6.8-7,8-9.8,2.9-2.3,4.4-3.5,6.6-5.4,13.2-4.6,26.4-9.4,39.6-14.1-2.6-9.5-7.7,2.4-10.8-2.2,1.5-1.7,2.8-3.8,4.6-5.1.9-.6,2.9.6,4,0,5-2.6,9.9-8.1,14.7-7.8,7.3.4,12.6-4.3,19.3-4.6,1.7-.1,3.3-2.2,5.7-3.4,3.1.5,6,.9,9.1,1.3-.4-.6-.6-1.2-1-1.8,2.2-2.7,4.4-5.4,7.6-8.1,4.4-1.2,9.4-1.6,13.2-3.9,5.5-3.3,10.3-8,15.3-12.1,1.1-.9,1.6-2.4,2.9-4.3,1.5-1.8,3.1-3.7,4.5-5.4,0,0,0,.1,1-.1.5-.9,1-1.6,1.3-2.4,0,0,0,.1.7.7,29.2-22,52.5-50.3,79.1-75.5-3.2-2.1-6.5-2.3-8.6-3.9-5.6-4.3-11-8.9-16-13.8-5.9-5.7-11.4-11.9-17.1-17.9-2.1-2.2-4-6-6.4-6.2-5.6-.6-6.5-4.4-7.6-9.3-1.6-.9-3.1-1.6-5.4-2.7-15.4-11.4-30.7-22.6-46.1-34-3.9-2.8-8.1-5.3-11.7-8.4-4.5-3.9-8.2-8.7-12.7-12.6-2.3-2.1-5.4-3.2-8.1-4.8-2.1-1.2-3.9-2.9-6.1-3.8-7.1-2.8-14.3-5.4-21.4-8.2-1.7-.7-3.1-2.3-4.2-3.3-3.9-.9-7.7-1.3-11.4-2.4-7.7-2.4-15.4-5-23-7.7-2.8-1-5.5-2.2-9.3-3.8-2,1.2-2.3,1.1-3.7-3.3-.5.6-1.3,2.1-1.8,2-5.9-1.3-11.7-2.9-17.5-4.5-.7-.2-1.6-.4-2.4-.5-5.4-.1-10.6.1-16-.4-19.3-1.7-38-8.6-57.6-7.5-11.4.6-23.2-5-34.2,2.1-1.6,1-4,.5-5.9,1.1-6.1,2-13.7-3.8-18.8,3.5-.2.2-1.5-.1-2.3-.2-2.1-.2-4-.9-6.1-.7-11.7.7-23.5,1.7-35.2,2.6-1.6.1-3.2.4-4.6,1-4.2,1.8-8,4.3-12.1,5.9-10.9,4-22.1,7.2-32.8,12-11,4.9-21.9,10.4-32,17.1-2,1.3-5.1,1-7.2,1.3-.5,1-.9,2.4-1.8,3.2-1.2.9-3.1,1-4.3,1.8-10.4,6.7-20.7,13.6-30.9,20.3-3.4,2.2-7.1,4.2-10.6,6.4-7,4.3-14.4,8-20.7,13.2-9.8,8.2-18.5,17.6-27.9,26.3-7.3,6.6-15,12.8-22.5,19.2-8.1,6.8-16.1,13.6-24,20.5-6.6,6-12.8,12.4-19.7,19.1,0,.2.1.6.1.9.4-.1.9-.4,2.1-.5,3.8,2.2,7.7,4.4,10.8,6.8-.4.6-.7,1.1-1.1,1.7.9.2,1.6.5,2.8-.1.4.1.6.2.1.7-1,2.4-2,4.8-2.8,7.1,1.3,1,2.6,2,2.9,2.9-.9,0-1.7,0-2.9-.7-.7-1-1.6-1.8-2.3-3.5-.9-.4-1.8-.6-3.4-1.6-2.3-1.8-4.8-3.7-8-6,1.1,8.9,8.6,9.4,12.6,14.2,0,1.1-.1,2.2-.1,3.3,1.2-.2,3.1,0,3.7-.9,1-1.2,1.1-3.1,2.1-4.3.6.7,1.2,1.5,1.8,2.2,3.2-1.8,6.1-3.5,10-5.3,4,2.2,8.1,4.4,12,7.5-2,2.8-3.8,5.5-5.4,7.8-2.7-.6-5.4-1.1-8.1-2.6-.1-1.2-.2-2.4-.2-3.8-.6.1-1.1.4-1.7.5.6,1.3,1.3,2.7,2,5,1.3,2.7,2.6,5.4,3.9,8.1,3.9-2.2,7.6-4.3,11.3-6.4-.7-.9-1.5-1.6-2.2-2.4.7,3.9,1.6,7.7,2.7,13.1,2.4.9,6.8,2.3,11.1,4.8-1.3,9.3,5.6,3.5,9.3,4.6-.7,2.3-1.3,4.4-2,6.2h7.1c-.5-.2-1.1-.6-1.6-.9,1.5-2.8,2.9-5.6,4.3-8.4.6.2,1.2.6,1.8.9-.6,1.8-1.3,3.5-2.2,5.5v.4s.2-.5,1-.5c1-.4,2-.7,3.3-.6.8.1,1.4.2,2.3.7M694.4,405.5c-.9.4-1.6.9-3.4,1.3-2.1.4-4.3.7-6,.4,1.1-1.3,2.3-2.8,4.3-4.2,2.7-1.5,5.5-3.1,1.1-6-.7,2.3-1.2,4.2-2.4,5.4-11.3,7.8-22.4,15.5-33.6,23.4.2.5.4,1,.6,1.5,3.9-1.7,8.1-3.2,11.9-5.4s7.1-5.3,10.9-6.8c.4.4.9,1.1,1.3,1.1,6.8.7,9.7-5.1,14.6-8.9.6-.4,1.2-.7,1.5-1.3-.3.1-.2.1-.8-.5M217.3,184h-.4s.5.2.5,1c0,.2,0,.4-.5,1,0,.5,0,1-.1,1.6.4-.1.6-.1,1-.2-.1-.6-.2-1.1.1-1.7.2-.1.6-.4.9-.5-.5-.6-.9-.8-1.5-1.2M348.2,490.7c.2.2.4.5.6.7-.1-.5-.2-1.1-.1-2.2-.5-.6-1.1-1.1-2-2.2-.6,0-1.2-.1-1.7-.1v.6c.7,0,1.5.1,2.3.9.2.5.5,1.1.9,2.3M169,432.1c0-.6.1-1.2.1-1.8h-.6c0,.7-.1,1.5-.4,2.3v.4c.2,0,.4-.5.9-.9M240.8,464.7h.4s-.5-.4-.5-.9c-.4-.2-.7-.6-1.1-.9-.1.4-.4.9-.4.9.5.1,1,.4,1.6.9M174,429.1c.6-.2,1.1-.4,1.7-.6,0,0-.2-.6-.4-1-.6.5-1.3,1-2.2,1.5v.4c.1-.1.3-.6.9-.3M215.7,448.4c.4-.4.7-.7,1.1-1.1l-.6-.6c-.5.5-.9,1.1-1.8,1.7-.2.2-.5.4-.9.6.5-.2,1-.3,2.2-.6M253.6,465.5c.4-.4.6-.7,1-1.2-.2-.2-.5-.4-.7-.6-.4.5-.9,1.1-1.8,1.8-.4.4-.7.7-1,1.1.2.2.5.4.7.6.4-.4.9-.9,1.8-1.7M471.2,479.1l-1.1,1.1c.2.2.5.4.7.6.4-.6.7-1.1,1.3-1.8v-.4c0-.1-.2.4-.9.5M175,433.7c-.7.5-1.3,1-2.1,1.3.2.2.7.7.7.6.7-.6,1.5-1.3,2.6-2.3.1-.4.1-.6.2-1-.1.6-.3.9-1.4,1.4M513,485.8c-.6-.2-1.3-.5-2-1.6-.4-1.1-.6-2.2-1-3.3-.5.2-1.1.6-1.6.9.9,1.1,1.7,2.2,2.6,3.9.7.2,1.6.4,2.8,1.2,1.1.5,2.2.9,3.4,1.3.1-.4.2-.9.4-1.2-1.3-.2-2.8-.4-4.6-1.2M662.7,224.1c.1.6.1,1.2.2,1.8.2-.1.6-.2.9-.2-.4-.7-.9-1.5-1.3-2.8-1.1.2-2.2.5-3.3.9.1.5.2,1,.4,1.3,1.1-.7,2.1-1.3,3.1-1M94,370.9c.4.6.7,1.1.7,2.3-5.6,3.4-3.1-4.5-7.3-4.4.7,2.3,1.3,4.5,1.7,5.6-1.7,2.4-2.9,4.4-4.3,6.2,6.7,2.8,12.1,5,18.1,7.5,1.1-.9,2.9-2.1,3.9-2.8-2.6-2.6-4.9-4.6-7-6.8-1.7-1.8-3.1-3.9-4.8-6.6-.4-.6-.7-1.1-1.1-2.6-.5-1-.9-2.1-1.3-3.1-.5.4-1,.7-1.5,1.1,1,1,1.8,2,2.9,3.6M99.9,228.6c-1,1.2-1.8,2.6-2.8,3.8.5.4,1.1.7,1.6,1.2,1-1.2,1.8-2.6,3.4-4,.2-.4.5-.6,1.5-1.2,2.3-2.6,4.6-5.1,7-7.7-.6-.6-1.3-1.1-2-1.7-2.4,2.9-4.8,5.9-7.5,8.9,0,0-.4.5-1.2.7M78.2,349.1h-4.9c0,.5.1,1,.1,1.5,2-.4,4-.7,6.5-1.2.1-.5.2-1,.4-1.5-.4.3-.8.8-2.1,1.2M339,462.1c.2,1,.6,2.1.9,3.1.6-.2,1.2-.5,2-.6-.6-.9-1.3-1.7-1.7-2.8v-.4c-.1,0-.4.3-1.2.7M251.9,452.7c.5.4,1,.6,1.3,1,.1-.1.2-.4.2-.5-.6-.4-1.3-.7-1.6-1.8-.1-1.8-.2-3.5-.4-6.2-1.7-2.2-3.4-4.4-5.5-7.2-1.6,2.4-2.4,3.8-3.7,5.9,3.5.9,6.4,1.6,9.1,3.1-.6,1.5-3.3,3.4.6,5.7M427.3,467c.6-1.3,1.2-2.6,1.7-3.9-.6-.1-1.3-.4-2-.5-.1,1.5-.4,2.8-1,4.3-.2.1-.5.4-.7.5.1.1.4.2.5.1.3-.3.6-.5,1.5-.5M168.5,197.2c.2.7.5,1.6.7,2.3.2-.1.6-.2.9-.4-.5-.9-1.1-1.8-1.3-3.4-.4-.9-.6-1.6-1-2.4l-2.7,2.7c1.2.2,2.3.3,3.4,1.2M419.5,466.8c-2.6.9-5,1.7-8.2,2.7-.4.7-.6,1.3-1,2.1.4.1.6.2,1,.4.2-.9.4-1.7,1.5-2.6,2.6,0,5.5,1.7,8.2-.7.6-1.3,1.2-2.6,1.7-3.9-.6-.1-1.2-.4-1.8-.5,0,.6-.3,1.6-1.4,2.5M298.3,142.1c.4.4.6.9,1,1.2.2-.2.5-.5.7-.7-.6-.4-1.2-.7-1.6-1.8-1.5-4.9-3.9-.5-5.9-1.2,0,.6-.1,1.2-.1,1.8,2,0,3.9,0,5.9.7M172.9,423.8c1.2-1.1,2.4-2.2,4-3.8q-5.5-.9-5.3,4.3c-.1.4-.1.6-.2,1,.3-.5.5-1,1.5-1.5M222.3,180.2c1.2.6,2.6,1.3,3.8,2,.1-.7.4-1.5.5-2.2-1.5-.2-2.8-.5-4.3-1.6-1.3-1.1-2.8-2.2-4.2-3.4-.6,1.2-1.2,2.6-1.7,3.5,2.6.4,4.2.7,5.9,1.7M86.6,364l-.1-.7h-5.4c0,.6-.1,1.2-.1,1.8,2.2.4,4.3.7,6.5,1.1-.3-.7-.6-1.5-.9-2.2M586.8,166.2c-.5-.7-.9-1.5-1.3-2.2-.2.2-.7.7-.7.7.6.7,1.3,1.6,2.1,3.2.2,6.2,3.4,3.1,5.9,2.4.1-.6.4-1.1.5-1.7-2.2-.4-4.4-1-6.5-2.4M221.3,450.2c.5,0,.9,0,1.3-.1-.5-.2-.9-.5-1.2-1.6.5-1.6,1.3-3.3,1.1-4.8-.1-.9-2.2-1.2-5.1-2.7,1.7,4.2,2.6,6.6,3.9,9.2M226.6,446.6c-1,5,2.6,6.6,6.6,7.8-2-2.8-3.9-5.6-5.4-8.9v-3.4c-.5.1-1.1.1-1.6.2.3,1.1.7,2.4.4,4.3M686.3,243.4c.5-.1,1-.1,1.6-.2-.2-.5-.5-1-.5-2.1,1,0,2,0,2.9-.1,3.1-.4,3.4-2,1.1-3.7-1.5-1-3.7-1.8-5.4-1.5-2.1.4-3.9,2-6.8,3.7,2.2,1.1,4.5,2.3,7.1,3.9M244.3,458.9c.4.4.7.7,1.1,1.1.2-.2.4-.5.6-.7-.6-.4-1.1-.9-1.6-2.1,1.1-1.2,2.3-2.4,3.3-3.4-1.7-1.6-3.2-2.8-4.6-4.2-.6,1.1-1.1,2.2-1.7,3.2s-1.3,1.8-2.3,2.9c-1.5-1.1-2.7-2-4.2-3.2q1,5.6,9.4,6.4M223.3,471.4c-3.4-2.2-7.5-2.7-10.5-6.5-2.1-2.4-8.2-1.7-13.5-2.4,9.1,9.4,34.9,18.6,43.4,15.2-1.8-1-2.9-2-4.3-2.3-4.7-1.4-9.5-2.5-15.1-4M39.5,277.3c-3.1,4.6-6,9.3-9.1,13.9-.4-.2-.6-.6-1-.9-.5,2.4-1,4.9-1.3,7.3.5.2,1,.6,1.5.9,5.3-4.6,10.5-9.3,15.8-13.9-.6-.7-1.1-1.3-1.7-2.1-1-.1-2-.4-3.1-.5.5-.4.9-.7,1.3-1.1-1-1.4-1.8-2.6-2.4-3.6M751.4,274.7c4,2.6,8.2,5.1,12.2,7.8.5-.4.9-.7,1.3-1.1-1-2-1.5-4.6-3.1-5.7-5.1-3.7-10.6-6.8-16.1-9.9-.7-.4-2.6.1-3.1.9-.5.6-.4,2.7.2,3.1,2.6,1.6,5.1,3.1,8.6,4.9M370.8,125.5c-3.8.4-7.5.7-11.3,1.1,0,.6.1,1.1.1,1.7,11.7-.6,23.4-1.3,35.1-2-.1-1-.1-2.1-.2-3.1-7.5.7-15.1,1.4-23.7,2.3M344.9,498.6c-5.9-1-11.7-2-17.6-2.8-.1.9-.2,1.7-.4,2.6,6.4.9,12.6,1.7,19,2.6,0-1,0-1.8-1-2.4M691.3,243.6c-.7,2.7-1.5,5.4-2.1,8.1.7-.2,1.3-.5,2.1-.6,1.3.2,2.6.5,4,.9,2.7-4.2,1.3-7-4-8.4M122.5,247.8c2-1.8,3.8-3.7,5.7-5.4-.4-.4-.7-.7-1-1.2-4.9,3.4-9.8,6.8-14.7,10.3.5.6.9,1.3,1.3,2,2.7-1.9,5.3-3.6,8.7-5.7M545,148.4c-1.3-1.2-2.7-2.3-3.9-3.5-.5.5-1,1.1-1.3,1.6,3.1,2.4,6.1,5,9.7,8,.9-.5,2.4-1.3,4.5-2.4-3.1-1.5-5.6-2.8-9-3.7M631.5,209.6c-1,2-2,3.9-3.1,6,2.7.6,5.1,1.1,8.1,1.7v-6.2c-4.6,4.4-3.4-.2-5-1.5M94.6,389.7c-.5,1.2-1,2.6-1.5,3.8,2.3-1.3,4.6-2.7,7-4-.4-.6-.6-1.1-1-1.7-1.3.4-2.6.9-4.5,1.9M527.6,488.5c-1.2-2.6-2.3-5.1-3.5-7.6-.7.5-1.5,1-2.2,1.5,1.6,2.1,3.3,4.2,5.7,6.1M151.7,408.8c-2.8-.6-5.6-1.2-8.3-1.8,0,1-.1,1.8-.1,2.8,2.5-.3,5.1-.5,8.4-1M667.5,243.3c.4-1.5.7-2.8,1.1-4.3q-4,3.5-1.1,4.3M146,404.5c-.4-1.5-.7-3.1-1.1-4.5-.7.4-1.6.9-2.3,1.2,1,1.2,1.8,2.4,3.4,3.3M359.6,488.4c-.9.1-1.8.2-2.8.4,1.2,1.8,2.1,3.4,3.1,5,.5-.1,1-.2,1.3-.4-.3-1.6-.7-3.2-1.6-5M554.1,474.7c-.5.9-1,1.7-1.5,2.4,1.5-.1,2.8-.2,4.3-.4-.8-.6-1.4-1.5-2.8-2M669.9,228.1c-1.1-1.8-2.2-3.8-3.2-5.6-.6.4-1.1.7-1.7,1.1,1.7,1.7,3.4,3.4,4.9,4.5M323.2,97h-3.9c-.6.7-1.2,1.6-1.8,2.3,1.2.4,2.7,1.2,3.8,1,1-.1,1.6-1.7,1.9-3.3M674.3,256.4c.7-1,1.5-2,2.4-3.4q-4,.9-2.4,3.4M251.9,459.4c-.5.2-1,.5-1.5.7,1.7.5,3.4,1,5.1,1.3.1-.5.2-1,.2-1.6-1,0-1.9-.3-3.8-.4M481.2,476.8v-3.2c-.5.1-1,.1-1.6.2.3.9.6,1.8,1.6,3M372.8,117.7c-.7-.7-1.6-1.5-2.3-2.2-.2.5-.5,1-.7,1.5.7.3,1.5.7,3,.7M479.4,479.2c-.4.7-.7,1.5-1,2.2.5.1,1,.1,1.5.2,0-.7.2-1.5-.5-2.4M253.5,155.5c.6-.2,1.2-.6,1.8-.9-.2-.4-.5-.7-.7-1-.6.5-1.1,1.1-1.1,1.9M71.7,375.6c.4-.4.9-.7,1.2-1.1-.9-.1-1.7-.1-2.4-.2.3.5.4,1,1.2,1.3M546.5,479.2c.5.6.9,1.1,1.3,1.7.2-.4.6-.9.9-1.2-.6-.3-1.1-.6-2.2-.5M100,370.9c.6-.2,1.2-.6,1.7-.9-.2-.2-.6-.9-.7-.7-.5.3-1,.7-1,1.6M367.6,107.6c0-.5.1-1,.1-1.5-.5.1-1.1.4-1.6.5.3.5.6.9,1.5,1M473.7,483.5c-.5-.2-1.1-.4-1.6-.6-.1.4-.2.6-.4,1,.6.1,1.4.1,2-.4M106.6,380.2c0-.6,0-1.3-.1-2-.4.1-.7.2-1,.4.1.5.4.9,1.1,1.6M46.6,345c-.4.2-.6.6-1,1,0,0,.2.2.4.4.3-.4.6-.6.6-1.4M367.2,488.3c-.7.2-1.3.5-2.1.7.1.4.2.6.4,1,.7-.4,1.3-.7,1.7-1.7M105.3,370.7c-.2.4-.5.7-.7,1,.3-.1.5-.4.7-1M369.4,497.9c-.1-.4-.1-.9-.2-1.2-.2.4-.3.9.2,1.2M66.4,355.3c0,.5-.1,1.1-.1,1.6,0,.1.6.1,1,.2-.2-.4-.3-1-.9-1.8M496.9,493.9c.4-.1.9-.1,1.2-.2-.4-.2-.8-.3-1.2.2M83.5,378.6c.2-.7.4-1.5.6-2.2-.2,0-.6-.1-.9-.1-.1.6-.1,1.3.3,2.3M93.3,361.9c-.4-.2-.7-.5-1-.7.1.4.4.7,1,.7M135.6,381.7c.7.2,1.6.4,2.3.6,0-.4.1-.6.1-1-.7,0-1.4,0-2.4.4M44.7,324.3c.1.4.1.9.2,1.2.2-.4.3-.9-.2-1.2M580.5,165.2c.4-.4.7-.6,1-1-.1-.1-.4-.4-.4-.4-.4.3-.6.7-.6,1.4M336.9,458.8c-.4-.4-.9-.6-1.2-1-.1.4-.2.6-.4,1,.5.2,1.2.4,1.6,0M262.3,144.4c.4-.2.6-.6,1-.9l-.4-.4c-.3.4-.6.6-.6,1.3M177.4,200.7c.4.2.7.4,1.1.6,0-.5.1-1,.1-1.6-.2.3-.6.4-1.2,1M419.9,471.9c.4-.1.9-.1,1.2-.2-.5-.2-.9-.3-1.2.2M429.3,470.2c.5-.2,1-.4,1.6-.6-.1-.2-.5-.7-.5-.7-.5.3-1,.7-1.1,1.3M175.2,194.6c-.6-.1-1.2-.4-1.8-.5,0,.2-.1.6-.1.9.7.1,1.3.1,1.9-.4M306.1,105.1c-.4-.4-.6-.6-1-1,0,0-.2.2-.4.4.4.2.7.6,1.4.6M87.9,346.3c.2.2.4.4.6.6.1-.4.1-.6.2-1-.2,0-.4,0-.8.4M38.7,343.8c.4.1.9.1,1.2.2-.2-.2-.6-.4-1.2-.2M677.5,259.8c.4-.1.7-.4,1.1-.5-.5,0-.9,0-1.1.5M670.8,242.1c.1-.4.4-.7.5-1.1-.3.2-.5.4-.5,1.1M34.3,338.8c-.4-.2-.6-.5-1-.7.3.3.4.7,1,.7M161.8,190.1c-.1.5-.1.9-.2,1.3.2-.2.3-.6.2-1.3M425,471.2c.2-.2.5-.4.7-.6l-.4-.4c-.3.2-.4.3-.3,1M484.3,470.5c.1.4.4.7.5,1.1,0-.4,0-.8-.5-1.1M352.5,483.9c.4-.1.7-.1,1.1-.2-.4-.2-.8-.2-1.1.2M177.8,427.2c.1.4.2.7.2,1.2.2-.3.3-.8-.2-1.2M362.4,498.4c-.1.5-.1.9-.2,1.3.2-.3.3-.5.2-1.3M96.1,360.5c-.2,0-.5.1-.7.1.1.4.1.6.2,1,.2-.3.4-.4.5-1.1M678.9,255.3c.1-.1.2-.2.5-.4-.2,0-.3,0-.5.4M255,148.5l-.4.4c.1-.1.3-.1.4-.4M373.1,107.7h-.6c.2.2.3.2.6,0M175,205.6c-.2-.1-.5-.1-.7-.2.1.2.3.3.7.2M664.8,218.3c-.1.1-.2.2-.4.4,0,0,.1,0,.4-.4M666.7,246.5c.1-.2.3-.2,0,0M224.5,187c.1.2.1.4.2.6.1-.2.2-.5-.2-.6M360.2,496l-.4.4c.1-.2.3-.2.4-.4M521.2,478.4h-.6c.1.1.2.1.6,0M475.9,482.8l.4-.4c-.2.1-.3.1-.4.4M468.8,484.2q-.1-.1,0,0M477.4,472.5q.1.1,0,0M49.5,344.3c-.1.1-.2.2-.4.4.1-.1.3-.1.4-.4M35.3,341.1c-.1.1-.1.2-.2.5.1-.1.2-.1.2-.5M218.2,439.2h.7c-.1-.1-.2-.2-.7,0M255.1,446.8c.2-.1.4-.2.6-.4-.2.1-.5.1-.6.4M237.6,448.8q-.1-.1,0,0M135.4,385.2s.1,0,0,0M77.4,382q.1.1,0,0M486.7,465.9c-.1.1-.1.2-.2.5,0-.1.2-.1.2-.5M244.7,470.3c.1-.1.3-.1,0,0M4.5,324.5c.1.5.1.9.2,1.3.5-.1,1.1-.1,1.6-.2-.2-.6-.5-1.2-1.8-1.1M262,146.9s.1-.1,0,0M290.1,139.5s.1-.1,0,0M259.8,146.9s-.2.1,0,0M288.9,142s.1-.1,0,0M587.5,173.7s.1.1,0,0M240.1,460h0M107.8,386.6s.2,0,0,0M169.2,427s-.1.1,0,0M170.3,417.2h0M373.4,114s0-.1,0,0M368.4,113.9s.1-.2,0,0M370.9,112.6h0M41.9,347.5h0M94.5,348.7h0M89.6,349.9h0M636.3,221.5s.1-.1,0,0M670.6,237.3s.2.1,0,0M49.2,341.5s-.1-.1,0,0M718.6,242.3l-.4-.1s0,.3.4.1M43.1,345h0M85.8,345s.1,0,0,0M176.3,198.3s.2-.2,0,0M248.6,468.6h0M246.2,467.4h0M418.7,463.6s.1.1,0,0M334.2,463.8s-.1-.1,0,0M346.5,483.4s-.1-.1,0,0M77.3,372s.1,0,0,0M367.3,491.7s.1.1,0,0M505.5,490.6h0M522.6,486.9h0M81,374.4h0M167.9,204.3s.1.1,0,0Z"/>
    <path d="M580.5,470.8c-.5-3.1-.7-6.1-.9-9.3q10.2.2,13-4.6c-1.5-1.1-3.1-2.3-5.1-3.9,6.4-2.8,11.5-7.7,18.8-6.7,1.7.2,3.4,2.1,5.1,2.1,3.4,0,5.4-2.1,8-4.8,3.1-3.4,8.8-4.3,15-7-1.5,2.6-2,3.5-2.2,3.9,1.8,2.8,3.4,5.3,5.5,7.8-1.2,1.8-2.9,3.4-5.1,4.6-2.3-2.9-4.3-5.4-5.9-7.5-2.9,1.6-5.4,2.6-7.3,4-1.6,1.2-4.8,2.8-.6,5l.1.5c1.8,1.6,3.5,2.6,5.4,3.7-1.8,1.1-3.7,2.1-5.5,3.2-3.7,2.2-7.2,4.6-11,6.6-7.3,4-14.7,7.8-22.6,11.4,0-1.5.6-2.7,1.3-4.3-1.3-.2-2.4-.5-3.5-.7,1.3-.7,2.7-1.5,4.8-2.2,1.3,0,2,0,2.4-.1-.6-.4-1.1-.7-1.7-1.1,5.7-3.3,11.5-6.5,17.7-9.4.9,1.7,1.3,3.1,1.8,4.9,4.6-4,8.4-7.3,4.4-13.7-1.7,3.2.9,9.7-6,8.2.5-.9,1.1-1.7,1.7-2.7-4.3-2.7-8-.7-11.4,1.5-5.5,3.6-10.6,7-16.2,10.6M597.1,452.2h2.6c-.2-.7-.4-1.5-.6-2.1-.6.5-1.4.9-2,2.1M602.7,453.8c.1.6.2,1.1.4,1.7.5-.2.9-.5,1.3-.7-.3-.5-.7-.9-1.7-1M608.2,453.5c.4-.1.7-.1,1.2-.2-.3-.1-.8-.2-1.2.2M600.5,468.6c-.1-.4-.1-.9-.2-1.2-.1.3-.2.8.2,1.2M592.1,472.7c.1-.1.2-.1,0,0Z"/>
    <path d="M540.2,488.8c9.8-4.5,19.7-9.1,29.5-13.6-.1-.4-.2-.7-.4-1.2-2,.5-3.9,1.2-5.9,1.2-1.5,0-2.8-1-4.3-1.5.2-1,.5-2.1.7-3.1,6.5,0,12.8,0,19.7.2-6.8,4.5-14.2,8.8-21.2,13,1.6,1.5,3.3,2.8,4.9,4.3-1.7,1.6-3.2,3.9-5.1,4.8-8.7,3.2-17,7.5-27,6-3.5-.5-7.7,2.9-12.1,4.6-.5,0-.7-.2-.7-.6-.4-1.3-.7-2.2-.6-3.2,1.3-.5,2.3-.7,3.2-1.2,6.1-3.6,14.3-3.2,19.3-9.7Z"/>
    <path d="M579.6,136.7c5.1,1.2,10.3,2.9,15.3,4.6,0-.2.1-.5.1-.7-4.2-3.2-8.1-8.2-12.7-9.1-5.9-1.1-9.3-3.9-13.7-9.5,5.6,2,9.7,3.4,14.2,4.6,2.2.7,3.8,1.7,6.2,3.1,3.9,2.3,7,4.4,10.2,7,.1.9.2,1.1.2,1.8-3.9,4-.9,6.1,2.2,8.4-1.5.4-2.4.6-4.2,1,1.6,1.3,2.9,2.4,4.2,3.7-2.4,1.6-4.9,3.1-7.3,4.6-.4-.4-.7-.9-1.1-1.2.4-2.1.9-4.3,1.3-7.2-4.6-2.1-9.4-4.2-14.7-6.4h-.4c.1-1.4.1-2.7.2-4.7M598.6,151.8s-.1,0,0,0Z"/>
    <path d="M502.9,509.6c-1-3.1-1.6-5.9-2-7.8,1.8-1.8,3.9-3.3,5.3-5.4,2.4-3.7,14.6-7.2,19.1-4.6-2,1.5-4.2,2.4-6.6,3.2-.6-.4-1-.5-1.3-.6.5.4,1,.6,1.3,1.3-1,1.5-1.8,2.6-2.9,4-1.7,1.5-3.2,2.6-5.7,4.5,2.9.4,4.3.5,5.7.7.1.1.2.4.2.4-4,1.3-8.3,2.8-13.1,4.3M519,491.8h0Z"/>
    <path d="M738.2,363.9c6.4.1,4.3-6.7,7.6-9.3,3.5-2.7,6.4-6.4,10.6-10.9-.1-3.5.4-4.3,6.2-6.2.5,1.1.7,1.7.9,2.3.2,0,.4,0,.6-.1v-2.8s0,.1.4.1c1,0,1.6.1,2.1.1.1,1,.9,2.4.5,2.8-8.4,7.8-16.9,15.4-25.4,23.1-.5.5-1.6.2-2.8.6-.6.2-.7.3-.7.3Z"/>
    <path d="M301.2,98.6c-.6.4-1.2.7-2.4.7-2.1-1-3.8-1.6-5.4-2.3-.1.4-.4.6-.5,1,1.3,1,2.7,2,4,2.9l-.4.2c-.5,2.8-.5,5.5-.5,8.2-1.6.9-3.1,1.7-5,2.2-.4-.2-.2-.9-.1-1,0-.4-.1-.7-.6-1-1.3-2.2-4.4-4.8-5.6-5.1.1-.6.1-.9.5-1.2.5-.6.7-1,1-1.5,0-.1-.1-.4.2-.6.5-1,.7-1.8.9-2.9v-1.6c4-1.7,8.2-3.5,11.7-5,1.1.7,2,1.3,3.5,1.8,1.1-.7,1.5-1.5,1.7-2.1,0,0,.6-.2.9-.2,1.6,1.1,2.9,2.3,4.5,3.8-1.2,1.1-2.4,2.2-3.9,3.1-2.5-5.1-3.1,0-4.5.6M289.7,100.7q-.1,0,0,0Z"/>
    <path d="M700.4,217.7c.1-2,.2-3.9.4-6.4,1.7,1.7,3.3,3.9,5.4,5.9,2.1,1.8,4.8,3.1,6.6,5.1,1.3,1.3,1.7,3.7,2.8,6.5,6.2-1.1,5.4,7,10.8,10.6-2.4-.1-3.2-.2-4.4-.2-.5,0-.4,0-.5-.4-1.3-1.5-2.4-2.4-3.9-3.8-1.1-.4-2.1-.5-3.1-1.1-.6-1.3-1.2-2.3-2-3.1-4-4.4-8.1-8.7-12.1-13.1Z"/>
    <path d="M383.5,82.7c2.9,1.5,6,2.8,10.5,5-1.6-2.7-2.2-3.7-3.2-5.3,5.9,1,11,2,16.6,2.7.9.1,1.2.4,1.7.9-.6,1.1-1.3,2.6-2.1,2.6-6.5,0-13-.4-19.7-.2-3.4.1-7.7,2.9-8.7-3.7,2-1.2,3.5-1.5,4.9-2Z"/>
    <path d="M165.1,459.5c1.1.2,2.2,1,3.5,2,1.6-3.8,3.1-7.5,4.8-11.9,4.4,5.6,3.8,12.7,11,13.9-.9.5-1.5,1-2.4,1.5-2.6.4-4.8.9-7.1,1.1-4.9.5-8.5-1.1-9.8-6.6Z"/>
    <path d="M599.1,136.4c-3.2-2.1-6.2-4.2-9.7-6.4,2.6-2.8,5.4-5.1,8.3-.2.5.7,1.5,1.5,2.3,1.6,9.3,1,13.3,8.6,18.2,14.6-6.8-3.1-12.9-6.3-19.1-9.6Z"/>
    <path d="M599.2,136.9c6.1,2.7,12.4,6,18.8,9.3.4.1.6.6.6.9-.6,1.3-1.2,2.4-1.8,4.4-2.6,0-5.5-.4-7.2-2-3.7-3.4-6.7-7.5-10.2-11.3-.1-.1-.1-.5-.2-1.3Z"/>
    <path d="M44.4,377.3c5.7-4.9.6-6-3.4-7.2,5.7-2.8,9.1-1.5,9.2,3.4,5.4-1.3,7,2.4,8.2,7.2-1.6,1.2-2.8,1.5-4.2,1.8-.2,0-.5-.2-.6-.4-.5-.1-.7,0-1.5,0-2.6-1.5-4.8-3.1-7-4.5-.1.1-.5-.3-.7-.3Z"/>
    <path d="M726.3,246.5c1.8-.2,3.8-.6,6-1,4.5,4.5,8.8,9.1,13.2,13.9-6.4,5.3-11.7,4.3-13.2-12.6-1.5,2.4-2.2,4-3.4,5.4-.2.4-1.7-.4-2.3-1.1.2-1.8-.1-3.3-.3-4.6Z"/>
    <path d="M50,267.6c.4-1.1.6-2.1,1-3.5,1.2-2.4,2.2-4.5,3.5-6.4,2.1-2.9,4.4-5.7,7-8.8.5,1.5.5,3.1.9,5.3.4,6.2-4.8,11.6-12.4,13.4Z"/>
    <path d="M54.3,382.6c1.2-.4,2.4-.6,3.9-1.3,5,2.7,9.7,5.9,14.3,8.9,2.3,1.5,4.6,2.9,7.7,4.9,0-.1,0,1,0,2.7-6-2.3-11.6-4.5-17.9-6.7-.7-.5-1-1-.9-1.7,1.1-.4,1.7-.6,2.6-.6.4.2.6.2.7.2s.4-.4.4-.4c-1.3-3.4-2.6-7-7.7-3.5-1.2-.9-2.2-1.8-3.1-2.5Z"/>
    <path d="M618.6,454.5c-4.2-2.2-1-3.8.6-5,2-1.5,4.4-2.4,7.3-4,1.6,2.1,3.4,4.5,5.4,7.3.1.4-.2.6-1,.6-2.4-.1-4.3-.1-6.6-.1-.1,2-.2,3.5-.4,5.3h0c-1.7-1.1-3.5-2.1-5-3.7.5-.9.9-1.2,1.1-1.6-.4-.1-.9-.4-.9-.4-.1.6-.3,1.1-.5,1.6Z"/>
    <path d="M504.5,98.9c4.9,1.6,9.4,3.3,14.3,5.1.4.1.2.1.2.1-1.1-1.2-3.7,2.8-4-1.2,0-.5-1.8-1.5-2.4-1.2-5.6,2.4-10.6,0-15.8-1.8-1.6-.6-2.9-1.6-3.8-3.5,1.3.2,2.7.4,4.3.6.6,0,.7.1,1.6.4,1.6.5,2.7.9,3.7,1.1.3.2.9.4,1.9.4Z"/>
    <path d="M157.7,158.8c-7.8,5.7-15.7,11.5-23.4,17.2-.4-.5-.7-1-1.1-1.5,7.7-5.4,15.3-10.8,23.6-16,.7,0,.9.3.9.3Z"/>
    <path d="M284.5,104.9c1.3-.1,4.4,2.6,5.7,5,.4.2.4.9.4.9,0,0-.1.6-.1.9-1.5.7-2.9,1.2-4.4,1.7-1.2.4-2.6.7-2.9.9-2.1-3.1-3.9-6-5.7-9.3,1.2-.4,2.6-.2,4.6-.4,1.4.2,1.9.3,2.4.3M287.9,111.2l-.1.2s.2,0,.1-.2Z"/>
    <path d="M331.2,88.7c-2.7,4.9-6.2,6-9.7,2.7-1-1.5-1.6-2.8-2-4.5,4.5-.6,9.1-4.4,11.7,1.8Z"/>
    <path d="M97.9,415.6c0-1.6.4-2.9,1.3-4.4,3.1,1.8,5.6,3.7,9.2,6.5v-4.6c.9.9,1.6,1.8,2.6,3.1-.1.5-.4.4-.5.5-4.4,3.9-8.3,2.7-12.6-1.1Z"/>
    <path d="M383.7,82.3c-1.6.9-3.1,1.2-4.8,2-3.8-.1-7.3-.6-11.5-1.2,0,.1-.2-1-.6-2.4,4.4-.7,8.9-1.1,13.9-1.6,1,.5,1.5,1,2.2,1.5.5.4.6.8.8,1.7Z"/>
    <path d="M578.3,482c-1.5.4-3.1.6-4.5,1,0,0,0,.7.1,1.1,0-.2,0-.4-.1-.6-.1-.1-.5-.2-.5-.2-.7,1-1.3,2-2.2,2.9-.9,1-2,2-2.8,2.8-.2-2.4-.4-4.2-.5-6.7,3.8-2,8.6-4.4,13.7-6.6-.9,2.3-2,4.4-3.2,6.3Z"/>
    <path d="M684.5,428.3c-5.6,4.2-11.1,8-16.8,11.6-.4-.6-.9-1.3-1.2-2,5.2-4.5,11-8.3,18-9.6Z"/>
    <path d="M331.6,88.7c-2.9-6.2-7.7-2.3-12.1-2.2,3.8-4.5,9.1-5.7,14.9-3.8-.6,2.2-1,3.7-1.5,5.1-.2.3-.6.6-1.3.9Z"/>
    <path d="M157.6,157.3c1.2-4.4,7.6-9.4,15.5-11.7-5,4.4-9.2,8.1-14.1,11.7h-1.4Z"/>
    <path d="M488.3,512.6c.9-7,4.6-8.2,11.6-3.3-3.7,1.4-7.5,2.3-11.6,3.3Z"/>
    <path d="M766.8,336.7c-.7.4-1.3.4-2.3.2.7-2.3,2-4.6,3.4-7.5,2.3,1.1,4.8,2.3,7.3,3.5,0,.5-.1,1-.1,1.5-2.8.7-5.5,1.4-8.3,2.3Z"/>
    <path d="M54,382.6c1.2.7,2.2,1.6,3.8,2.7,1.1.7,1.6,1.2,2.2,1.7-7.1.9-11.6-2.8-15-8.9,2.2,1.1,4.4,2.6,7.2,4.2.9.1,1.1.1,1.3.1,0,0,.4.2.5.2Z"/>
    <path d="M578.6,481.9c.7-2,2-3.9,3.2-6.4.1-.4.2-.6.5-.6,1.3.2,2.4.5,3.8.7-.7,1.5-1.2,2.7-1.7,4.3-1.7,1-3.4,1.5-5.8,2Z"/>
    <path d="M284.6,104.6c-.6.2-1.1.1-2.1,0-.7-.6-1-1.3-.9-2.6.5-1.5.6-2.3.6-3.3,1.3-.6,2.8-1.2,4.5-2.1.4.2.4.7,0,1.7-.5,1.3-.7,2.1-.9,2.9,0,0,0,.2-.2.5-.5.7-.7,1.1-1,1.5.1.5.1.8,0,1.4Z"/>
    <path d="M624.4,458.6c-.2-1.6-.1-3.2,0-5.1h6.4c-1.6,1.6-3.8,3.2-6.4,5.1Z"/>
    <path d="M60.3,387c-.7-.5-1.2-1-2-1.8,4.5-3.8,5.7-.1,7.1,3.2,0,.1-.2.4-.4.4-.1,0-.4,0-1.1-.6-1.3-.7-2.2-.9-3.1-1.1.1.1-.3-.1-.5-.1Z"/>
    <path d="M540.4,105.9c.9-1.7,1.7-3.4,2.4-5,.7.5,1.5,1.1,2.2,1.6-1.2,1.1-2.6,2.2-4.3,3.4h-.3Z"/>
    <path d="M282,99.1c.2.7.1,1.7-.1,2.8-.1-.8-.1-1.7.1-2.8Z"/>
    <path d="M502.3,98.2c-1,.1-2-.2-3.3-.7,1-.2,2.1.1,3.3.7Z"/>
    <path d="M180.7,467.2c.6-.1,1.3,0,2.2.5-.5.2-1.3-.1-2.2-.5Z"/>
    <path d="M720.9,241.3c-.4-.1-1.1-.5-2.1-1.5-.1-.4.1-.6.5-.4,1,.1,1.5-.1,2.1-.4h-.1c-.2.7-.4,1.2-.4,2.3Z"/>
    <path d="M763.7,336.9c.2,1,.2,2,.2,2.9-.2,0-.4,0-.6.1-.1-.6-.2-1.2-.5-2.3.2-.4.7-.7.9-.7Z"/>
    <path d="M730,242.5c-.6.2-1.5.1-2.3-.4.5-.2,1.3,0,2.3.4Z"/>
    <path d="M587.9,471.9c.7.1,1.3.5,2,.9-.6,0-1.2.1-2.1,0-.3-.4-.2-.5.1-.9Z"/>
    <path d="M303.9,91.4c0,.6-.2,1.2-1,2,0-.6.3-1.3,1-2Z"/>
    <path d="M518.6,503.7c-.5.5-1,.9-2,1.3-.4.1-.5-.1-.4-.5.7-.6,1.3-.9,2.1-1.1-.1-.1.2.2.3.3Z"/>
    <path d="M738.3,363.8c-.1.4-.2.6-.5,1,.2-.2.6-.5.6-.9-.2,0-.1-.1-.1-.1Z"/>
    <path d="M60.9,387.7c.9-.2,1.7-.1,2.8.5-.4.6-1,.7-2.1.9-.6-.4-.6-.8-.7-1.4Z"/>
    <path d="M157.5,157.5c.5-.1.7-.1,1.3-.1.1.4-.1.7-.7,1.2-.4.1-.6-.1-.7-.2-.3-.1-.1-.7.1-.9Z"/>
    <path d="M685.3,425.8h0Z"/>
    <path d="M464.4,458.1c.1-.9.1-2.3.5-2.4,4.9-1.7,9.9-3.4,14.9-4.6,10.6-2.6,21.4-5,32.2-7.5,5.6-1.3,10.2-5.6,16.3-6,.7,1.1,1.5,2.2,2.4,3.7-8.2,3.9-16.4,8-24.6,11.9.1.5.4.9.5,1.3,2-.4,3.9-.7,6.4-1.1-1,1.3-2.4,2.6-5.4,4.9-1.1,2.7-1.7,8.3-8.3,9.4-.5-.2-.5-.9-.5-1.2v-1.3c0-1,0-1.5.4-2.1.6-.6.9-1.1,1.1-1.7-.9.6-1.7,1.2-2.9,1.7h-.9c-.5,0-1.1,0-2.1-.2-.6-.6-.9-.9-1-1.1-.2.5-.4,1-.6,1.3,0,0-.6,0-1.2-.2-2.4-.5-4.3-.7-6.1-1-1.1.5-2.3,1.1-3.5,2.1l-.2.5c-2.7,1.3-5.4,2.7-8.7,4.5-.5.4-1.1.4-1.1.4-4.8-1-6.7,1.6-6.6,8.1-3.2-3.5-5-5.9-7.1-8-.7-.7-2-1.1-3.2-2.1,8.1-3.4,18.2.4,25.2-7.1,0-.7-.1-1.6-.1-2.3-5.3.1-10.5.1-15.8.1Z"/>
    <path d="M97.6,346.4c8.9,4.9,17.9,10.2,26.5,15.8,1.5,1,2,3.7,2.6,6.4-3.8,3.5-7.3,3.4-11.3,1.2-1-.6-2.8.2-4.3.4-4.4-1.6-8.9-3.1-11.3-3.9-1.1-5.4-1.8-9.3-2.7-13.1.7.9,1.5,1.6,2.2,2.4-3.7,2.1-7.3,4.2-11.3,6.4-1.3-2.7-2.6-5.4-3.9-8.4v-.5c2.7.6,5.3,1.1,8.1,1.7,1.4-2.4,3.4-5.1,5.4-8.4Z"/>
    <path d="M600.2,403.1c3.4-2.2,6.8-4.5,10.9-6.5,5.6,2.3,7.7,1.3,9.3-3.8-2,.1-3.9.2-5.9.4,1.7-1.2,3.5-2.4,6-3.4q4.2,2,7.2-2.1c-1.2-.2-2.3-.5-3.5-.7,6.6-4.2,13.1-8.3,20.1-12.7.2,1.2.5,2.4,1,4,.2.4.2.2-.2.1-1,.9-1.5,1.7-2,2.7,0,0,0-.1-.2-.5-2.4,2.7-9.5-.4-8.8,6.5h4.2c-.9,1.2-1.3,2.7-2.4,3.5-5,4.2-9.7,8.8-15.3,12.1-3.8,2.3-8.8,2.7-14.1,3.8-2.8-1-4.5-2.3-6.3-3.4Z"/>
    <path d="M50,268.1c7.7-2.3,12.8-7.7,12.8-13.8,2.2-1.6,4.5-2.4,6.4-4,2.7-2.3,5.1-5.1,7.7-7.7.9-.9,1.7-1.6,2.7-2.4.5.2,1,.5,1.5.7-1.5,3.1-2.2,6.7-4.4,8.9-8.7,8.2-17.5,16.2-24.6,26-.4.5-1,.7-1.5,1.1-.4-2.9-.6-5.6-.6-8.8Z"/>
    <path d="M223.7,471.5c5.3,1.3,10,2.6,14.7,3.9,1.3.4,2.4,1.2,4.3,2.3-8.4,3.4-34.4-5.7-43.4-15.2,5.3.9,11.4,0,13.5,2.4,3,3.8,7.1,4.3,10.9,6.6Z"/>
    <path d="M111,370.5c1.5-.6,3.3-1.3,4.3-.9,3.9,2.2,7.5,2.3,11.5-.7,4-1.7,6.7-.9,8.6,3.2-1.1,1.8-2.3,3.3-3.5,5v.4c-1,.4-2,.7-3.3,1.2.2-1.7.9-3.5,1.6-5.3-.6-.2-1.2-.6-1.8-.9-1.5,2.8-2.9,5.6-4.3,8.4.5.2,1.1.6,1.6.9h-7.1c.6-1.8,1.2-3.8,2-6.2-4-1.1-10.9,4.7-9.6-5.1M114.1,373.2h0Z"/>
    <path d="M95.1,372.6c1.6,2,2.9,4,4.6,5.9,2.1,2.3,4.4,4.4,7,6.8-1,.7-2.7,2-3.9,2.8-5.9-2.4-11.3-4.6-18.1-7.5,1.3-2,2.6-3.8,4.3-6.2-.4-1.1-1-3.2-1.7-5.6,4.3-.1,1.7,7.8,7.5,4l.3-.2Z"/>
    <path d="M464.4,458.1h15.7c0,.7.1,1.6.1,2.3-7,7.5-17.1,3.7-25.6,7-3.2,1-6,1.5-8.9,2-.1-.4-.2-.9-.4-1.2,5-2.3,9.9-4.6,15.7-7.3,1.7-1.2,2.5-2,3.4-2.8.1,0,0,0,0,0Z"/>
    <path d="M599.8,403.1c2.2,1.1,4,2.3,6.1,3.5-1.8,2.8-4,5.5-6.2,8.2.4.6.6,1.2,1,1.8-3.1-.5-6-.9-9.4-1.3-1.3-1-2.4-1.8-4.3-3.5,4.2-2.8,8.3-5.7,12.8-8.7M598.3,412.3s.2-.1,0,0M599.7,408.5s.1.2,0,0Z"/>
    <path d="M700,217.7c4.5,4.4,8.6,8.8,12.6,13.1.7.7,1.2,1.7,1.5,3.2-.7,1.7-1.1,2.9-1.5,4.2-3.7.4-4.9-1.6-5-5.5-1-.6-1.5-.7-2-.7.2.6.5,1.1.7,1.7-1-.9-2.8-2.1-2.7-2.7,2.1-7.5-5.3-7.8-8.2-11.4-1.1-1.3-2-2.9-1.8-5.1,2,1,3.9,2,6.4,3.2Z"/>
    <path d="M66.1,376.1c-2.3-1.2-4.3-2.6-6.4-4.3,1.8-4.4,3.9-8.4,6.4-13.3,3.5,5.1,6,8.7,7.7,11.1-3,2.5-5.2,4.3-7.7,6.5M65.1,364.6h0Z"/>
    <path d="M599.4,138.7c3.3,3.4,6.4,7.5,10,10.9,1.7,1.6,4.8,2,7.2,2.4.2,0,.5.5.7,1,0,0,.4,0,.5-.1-.2-.1-.7-.4-.9-.4-3.8,5.1-6.8,2.8-10.2-.9-.7-.9-3.2-.1-5.1-.1-1.5-1.1-2.8-2.3-4.4-3.7,1.6-.4,2.7-.6,4.2-1-2.8-2-5.9-4.1-2-8.1Z"/>
    <path d="M39.2,277c.7,1.1,1.7,2.4,2.6,3.8-.5.4-.9.7-1.3,1.1,1,.1,2,.4,3.1.5.6.7,1.1,1.3,1.7,2.1-5.3,4.6-10.5,9.3-15.8,13.9-.5-.2-1-.6-1.5-.9.5-2.4,1-4.9,1.3-7.3.4.2.6.6,1,.9,3.2-4.6,6.1-9.3,8.9-14.1Z"/>
    <path d="M750.9,274.6c-2.9-1.7-5.6-3.2-8-4.9-.6-.5-.7-2.4-.2-3.1s2.4-1.2,3.1-.9c5.5,3.2,11,6.4,16.1,9.9,1.6,1.1,2.1,3.8,3.1,5.7-.5.4-.9.7-1.3,1.1-4.3-2.4-8.3-5-12.8-7.8Z"/>
    <path d="M688.4,403.1c-1.1,1.3-2.3,2.8-3.5,4.5-.1.4,0,.4-.5.5-2.2,1.7-4,3.3-5.7,4.9,0-.1.1-.1-.4-.1-.6.5-.7,1-.9,1.3l.1-.1c-3.5,2.7-6.8,5.6-10.6,7.8-3.7,2.2-7.8,3.5-11.9,5.4-.2-.5-.4-1-.6-1.5,11.3-7.8,22.4-15.5,33.9-23l.1.3Z"/>
    <path d="M399.6,93.8c-.6.7-1.3,2.1-2,2.1-12.1.1-24.2.1-36.4.1v-1.6c5.7-.2,11.6-.4,17.4-.9,2.8-.2,5.5-1.1,9.2-2.1,4.4.7,8.1,1.5,11.8,2.4Z"/>
    <path d="M72.6,331.7c4.2,2.2,7.8,4.5,11.9,7.3-2.7,2.1-5.7,3.8-8.9,5.7-.6-.7-1.2-1.5-2.1-2.4l-.4-.4c-1.2-1-2.4-1.8-3.8-2.9.9-2.3,1.8-4.7,3.3-7.3M76.9,338.9c-.4-.1-.9-.1-1.2-.2.2.2.6.4,1.2.2Z"/>
    <path d="M371.3,125.5c8.1-.7,15.7-1.5,23.2-2.2.1,1,.1,2.1.2,3.1-11.7.6-23.4,1.3-35.1,2,0-.6-.1-1.1-.1-1.7,3.7-.5,7.5-.9,11.8-1.2Z"/>
    <path d="M516.1,499c.9-1.1,1.7-2.2,2.7-3.7.1-.4.2-.4.2-.4,2.2-1,4.4-2,6.7-3.3,4.5-1.2,8.9-2.1,13.9-2.9-4.4,6.4-12.7,6-19,9.7-.9.5-1.8.9-3.3,1-.8-.1-.9-.2-1.2-.4Z"/>
    <path d="M403.4,464.3c3.1-4.4,7.2-2.2,11.7-2-.1.9-.7,2.6-1.5,2.7-6.5.7-7.1,4.4-4.5,9.5-7.1,1.2-3.3-4.5-5.4-6.6-.4-.1-.4,0-.4,0,0-.2,0-.5.5-1.1.9-1,1.2-1.6,1.6-2.2-.7-.1-1.5-.2-2.2-.4,0,.1.2,0,.2.1Z"/>
    <path d="M345.4,498.4c.5.7.5,1.5.5,2.3-6.4-.9-12.6-1.7-19-2.6.1-.9.2-1.7.4-2.6,6,1.1,11.7,2.1,18.1,2.9Z"/>
    <path d="M684.7,407.9c2.1-.4,4.2-.7,7-1,.7.1,1.1.6,1.1.6-4.3,3.4-7.1,9.4-13.9,8.6-.5,0-.9-.7-1.3-1.6-.1-.5-.1-.4.2-.5.6-.5.9-.9,1-1.2,0,0-.1,0,.2.1,2-1.4,3.9-3.1,5.7-5h0Z"/>
    <path d="M108.1,412.8c.4,1.1.4,2.1.4,4.8-3.5-2.7-6.1-4.6-9.1-6.8-.2-2.1-.1-3.9.4-6.1,2.8,2.4,5.3,5.2,8.3,8.1Z"/>
    <path d="M86.1,392.3c-2.6-1.8-5.3-3.7-8.1-5.9,1.5-1.6,3.1-2.8,4.9-4.2,1.5,1.6,3.4,3.7,5.7,6l.4.2v3.2q0,.5-.5.5c-1.1.2-1.7.2-2.4.2Z"/>
    <path d="M244.2,458.3q-8.4-.2-9.2-5.5c1.5,1.1,2.7,2,4.2,3.2.9-1.1,1.7-2,2.3-2.9.6-1,1.2-2.1,1.7-3.2,1.5,1.3,2.9,2.6,4.6,4.2-1,1-2.1,2.2-3.3,3.9-.2.2-.3.3-.3.3Z"/>
    <path d="M68.2,343.5c-4-4-11.6-4.5-12.7-13.5,3.2,2.4,5.6,4.3,8.4,6.7,1.3,1,2.1,1.3,2.9,1.8.7,1,1.6,1.8,2.3,3.4-.2.9-.5,1.2-.9,1.6Z"/>
    <path d="M685.9,242.9c-2.2-1.1-4.5-2.3-6.7-3.4,2.9-1.6,4.8-3.3,6.8-3.7,1.7-.2,3.9.5,5.4,1.5,2.3,1.6,2,3.2-1.1,3.7-1,.1-2,0-3.1.4-.1.4-.1.2-.4.5-.5.3-.8.6-.9,1h0Z"/>
    <path d="M31.3,349.2c-2.8-1.8-5.5-4-8.2-6.8,2.4-1.8,4.8-3.1,6.6-4.2.5,3.7,1.1,7.1,1.6,11Z"/>
    <path d="M691.5,243.4c4.9,1.5,6.5,4.3,3.7,8.6-1.5-.2-2.8-.6-4-.9-.7.2-1.3.5-2.1.6.7-2.6,1.5-5.2,2.4-8.3Z"/>
    <path d="M122.1,247.9c-2.9,2-5.6,3.7-8.2,5.5-.5-.6-.9-1.3-1.3-2,4.9-3.4,9.8-6.8,14.7-10.3.4.4.7.7,1,1.2-2,1.8-4,3.7-6.2,5.6Z"/>
    <path d="M399.8,93.6c-3.9-.6-7.7-1.5-11.9-2.3-.5-.2-.5-.5-.5-1.1,6.6.5,13.2,1.3,20.3,2.3-.1,1.3-.7,2.6-1.1,3.4-2.1-1-4.3-1.9-6.8-2.3Z"/>
    <path d="M545.5,148.4c2.9,1.1,5.3,2.2,8.3,3.7-2.1,1.1-3.7,2-4.5,2.4-3.5-2.9-6.6-5.4-9.7-8,.5-.5,1-1.1,1.3-1.6,1.5,1.1,2.9,2.4,4.6,3.5Z"/>
    <path d="M631.9,209.5c1.2,1.3,0,6,4.6,1.7v6.2c-2.8-.6-5.3-1.2-8.1-1.7,1.1-2.1,2.1-4.1,3.5-6.2Z"/>
    <path d="M251.7,446c-2.8-.7-5.6-1.3-9.2-2.2,1.2-2,2.1-3.4,3.7-5.9,2.2,2.8,3.8,5,5.5,7.7v.4Z"/>
    <path d="M638.5,386.9c-1.6.4-3.1.4-4.4.4-.6-6.8,6.4-3.8,8.9-6.5-1.4,2.2-2.8,4-4.5,6.1Z"/>
    <path d="M101.4,227.7c2.4-2.9,4.8-5.9,7.2-8.8.6.6,1.3,1.1,2,1.7-2.3,2.6-4.6,5.1-7.8,7.6-1-.2-1.2-.3-1.4-.5Z"/>
    <path d="M94.9,389.4c1.6-.7,2.9-1.2,4.3-1.7.4.6.6,1.1,1,1.7-2.3,1.3-4.6,2.7-7,4,.4-1.3.9-2.5,1.7-4Z"/>
    <path d="M68.1,343.8c.5-.7.9-1,1.3-1.6,1.1-.4,1.8-.4,3.2-.4h.5c-.5,1.6-.6,3.4-1.6,4.6-.6.7-2.3.6-3.7.9.2-.9.3-2,.3-3.5Z"/>
    <path d="M227.2,446c2,2.8,3.9,5.6,6,8.4-4-1.2-7.6-2.8-6.2-8.1l.2-.3Z"/>
    <path d="M221,449.8c-1-2.3-1.8-4.5-3.5-8.7,2.8,1.5,5,2,5.1,2.7.2,1.5-.7,3.2-1.2,5.3-.3.5-.4.7-.4.7Z"/>
    <path d="M527.3,488.7c-2.1-2.1-3.7-4.2-5.4-6.2.7-.5,1.5-1,2.2-1.5,1.1,2.5,2.3,5,3.2,7.7Z"/>
    <path d="M586.8,167.6c2.1.1,4.3.6,6.4,1.2-.1.6-.4,1.1-.5,1.7-2.4.6-5.6,3.7-5.9-2.9Z"/>
    <path d="M296.2,109.2c-.1-2.4-.1-5,.4-8,1.3,1.2,2.3,2.7,2.8,3.4-1,1.4-2.1,2.9-3.2,4.6Z"/>
    <path d="M86.6,364c.2.7.6,1.5.9,2.2-2.2-.4-4.3-.7-6.5-1.1,0-.6.1-1.2.1-1.8,1.8,0,3.5,0,5.3.4-.1.4-.1.7-.1.7l.3-.4Z"/>
    <path d="M151.4,408.9c-2.9.4-5.5.5-8.1.7,0-1,.1-1.8.1-2.8,2.7.8,5.5,1.4,8,2.1Z"/>
    <path d="M712.6,238.1c.2-1.2.6-2.4,1.5-3.7,1.3,0,2.3.1,3.4,1,.6,1.7,1.1,2.8,1.6,3.8,0,0-.2.2-.2.4-.6,0-1.2-.1-2.4-.4-1.7-.5-2.6-.9-3.5-1.2-.3.1-.4.3-.4.1Z"/>
    <path d="M222.3,179.3c-1.6-.2-3.3-.4-5.9-.7.5-1,1.1-2.2,1.7-3.5,1.3,1.1,2.8,2.2,4.2,3.8v.4Z"/>
    <path d="M725.8,246.5c.7,1.3,1,2.7.9,4.2-2.6-1.7-4.8-3.5-7-5.4.4-.4.6-.9,1-1.2,1.4.8,3,1.6,5.1,2.4Z"/>
    <path d="M172.2,423.9q-.6-4.8,4.9-3.9c-1.6,1.5-2.8,2.7-4.5,3.8l-.4.1Z"/>
    <path d="M262.8,151.3c.4,1.5.7,2.9,1.1,4.5-1.2.2-2.6.5-6,1.1,1.8-2.7,2.9-4.3,4.4-5.7.4,0,.5.1.5.1Z"/>
    <path d="M298.2,141.4h-5.7c0-.6.1-1.2.1-1.8,1.8.7,4.4-3.7,5.6,1.6v.2Z"/>
    <path d="M667.2,243.5q-2.6-1,1.5-4.4c-.4,1.4-.9,2.8-1.5,4.4Z"/>
    <path d="M145.8,404.6c-1.2-1.1-2.2-2.3-3.1-3.4.7-.4,1.6-.9,2.3-1.2.3,1.4.6,2.9.8,4.6Z"/>
    <path d="M359.9,488.5c.6,1.7,1,3.3,1.3,4.9-.5.1-1,.2-1.3.4-1-1.6-2-3.1-3.1-5,.9-.1,1.9-.3,3.1-.3Z"/>
    <path d="M411.9,469.2c2.6-.9,5-1.7,8.1-2.4q.5,0,.5.4v1c-2.2,2.9-5,1.2-8.1,1.2l-.5-.2Z"/>
    <path d="M554.4,474.6c1.1.6,1.7,1.5,2.4,2.2-1.5.1-2.8.2-4.3.4.6-.9,1.1-1.6,1.9-2.6Z"/>
    <path d="M670,228.4c-1.6-1.3-3.4-3.1-5.1-4.8.6-.4,1.1-.7,1.7-1.1,1.1,1.8,2.2,3.8,3.4,5.9Z"/>
    <path d="M688.4,403.1c.6-1.8,1.2-3.8,1.8-6.1,4.5,3.1,1.6,4.5-1.5,6l-.3.1Z"/>
    <path d="M323.5,97.3c-.6,1.2-1.1,2.8-2.1,3.1-1.1.2-2.4-.6-3.8-1,.6-.7,1.2-1.6,1.8-2.3,1.3-.1,2.6-.1,4.1.2Z"/>
    <path d="M168.5,196.4c-1.1-.1-2.2-.2-3.4-.5l2.7-2.7c.4.9.6,1.6.9,2.8l-.2.4Z"/>
    <path d="M222.3,179.3c1.5.2,2.9.5,4.3.7-.1.7-.4,1.5-.5,2.2-1.2-.6-2.6-1.3-3.8-2.4v-.5Z"/>
    <path d="M674.1,256.6q-1.5-2.7,2.7-3.7c-1,1.5-1.8,2.5-2.7,3.7Z"/>
    <path d="M252.3,459.4c1.5.1,2.6.4,3.5.5-.1.5-.2,1-.2,1.6-1.7-.5-3.4-1-5.1-1.3.4-.3.9-.5,1.8-.8Z"/>
    <path d="M426.6,466.8c.1-1.5.4-2.8.5-4.3.6.1,1.3.4,2,.5-.6,1.3-1.2,2.6-2.1,3.8h-.4Z"/>
    <path d="M35.2,351.8c-1.3-.1-2.4-.7-3.8-1.7,1.2-1.1,2.6-1.8,4.6-2.9-.2,1.8-.5,3-.8,4.6Z"/>
    <path d="M251.7,446c.1,1.8.2,3.5.1,5.7l-.1.4c-3.8-1.7-1-3.5-.1-5.7l.1-.4Z"/>
    <path d="M339.8,461.9c.6.9,1.3,1.7,2,2.7-.6.2-1.2.5-2,.6-.2-1-.6-2.1-.5-3.2l.5-.1Z"/>
    <path d="M420.5,466.8c.1-.9.4-1.8.5-2.7.6.1,1.2.4,1.8.5-.6,1.3-1.2,2.6-2.1,3.7q-.2-.2,0-.4c.4-.7.3-.9-.2-1.1h0Z"/>
    <path d="M480.8,476.7c-.6-1-1-2-1.2-2.8.5-.1,1-.1,1.6-.2,0,.9,0,2-.4,3Z"/>
    <path d="M511,485.1c-.9-1.1-1.7-2.2-2.6-3.3.5-.2,1.1-.6,1.6-.9.4,1.1.6,2.2,1,3.7v.5Z"/>
    <path d="M141.5,377.7c.2-.2.9-.2,1.1,0-.2,1.7-.6,3.3-1.1,4.8-.4-.1-.9-.2-1.2-.4.3-1.3.6-2.8,1.2-4.4Z"/>
    <path d="M41.2,354.3c-.1.4-.5.4-.7.4-.9-1-1.6-2.1-2.3-3.2.5-.4,1.1-.7,1.6-1.1.5,1.3,1,2.4,1.4,3.9Z"/>
    <path d="M79.3,349.5c-2,.4-4,.7-6,1.1,0-.5-.1-1-.1-1.5,1.6,0,3.3,0,5.4.1.6.1.7.3.7.3Z"/>
    <path d="M297.3,100.9c-1.7-1-3.1-2-4.4-2.9.1-.4.4-.6.5-1,1.6.6,3.3,1.3,5.1,2.3-.1.9-.5,1.2-1.2,1.6Z"/>
    <path d="M101.5,229.7c-1,1.2-1.8,2.6-2.8,3.8-.5-.4-1.1-.7-1.6-1.2,1-1.2,1.8-2.6,3.4-3.5.7.5.9.7,1,.9Z"/>
    <path d="M372.4,117.9c-1.1-.2-2-.5-2.8-.9.2-.5.5-1,.7-1.5.9.8,1.6,1.5,2.1,2.4Z"/>
    <path d="M227.2,446c-.4-1.2-.7-2.6-1-3.8.5-.1,1.1-.1,1.6-.2,0,1.1,0,2.3-.2,3.7l-.4.3Z"/>
    <path d="M93.9,369.8c-.9-.5-1.8-1.5-2.7-2.3.5-.4,1-.7,1.5-1.1.3.9.7,1.9,1.2,3.4Z"/>
    <path d="M84.1,353c-.6-1.3-1.3-2.7-2-4.2.6-.1,1.1-.4,1.7-.5.1,1.2.2,2.4.2,4.2l.1.5Z"/>
    <path d="M479.8,479.2c.2.9.2,1.6.1,2.4-.5-.1-1-.1-1.5-.2.4-.7.7-1.4,1.4-2.2Z"/>
    <path d="M485.7,462.2c1.6-.1,3.4.1,5.5.6-1.6,0-3.4-.1-5.5-.6Z"/>
    <path d="M496.3,463.6c0-.5.6-.5,1.2-.5h1.2c0,.6,0,1.1-.1,2.2-.4,1-.2,1.2.1,1.5v.9c-.8-1.1-1.5-2.4-2.4-4.1Z"/>
    <path d="M669.5,253.2c-1.5-.4-2.7-1.3-4.3-2.6,1.4.5,3,1.2,4.3,2.6Z"/>
    <path d="M662.7,223.3c-1,.5-2.1,1.1-3.1,1.6-.1-.5-.2-1-.4-1.3,1.1-.2,2.2-.5,3.3-.5l.2.2Z"/>
    <path d="M253.3,155.3c.2-.6.9-1.2,1.3-1.8.2.4.5.7.7,1-.6.3-1.2.6-2,.8Z"/>
    <path d="M71.4,375.6c-.5-.4-.7-1-1-1.5.9.1,1.7.1,2.4.2-.2.6-.7,1-1.4,1.3Z"/>
    <path d="M513.7,486.6c1.1-.1,2.6.1,3.9.4-.1.4-.2.9-.4,1.2-1.1-.4-2.2-.9-3.5-1.6Z"/>
    <path d="M586.8,166.7c-.7-.4-1.5-1.1-2.1-1.8,0,0,.5-.5.7-.7.6.5,1,1.3,1.4,2.5Z"/>
    <path d="M66.9,338.1c-.9,0-1.6-.4-2.6-1.1.8,0,1.7.3,2.6,1.1Z"/>
    <path d="M546.7,479c.9.1,1.3.4,2,.6-.2.4-.6.9-.9,1.2-.5-.5-1-1.1-1.1-1.8Z"/>
    <path d="M301.7,98.6c.9-.6,1.3-5.6,3.7-.4-1,.4-2,.4-3.7.4Z"/>
    <path d="M99.8,370.6c.2-.6.7-1.1,1.3-1.3,0,0,.5.5.7.7-.7.4-1.3.6-2,.6Z"/>
    <path d="M175.8,433.7c-.7.7-1.5,1.3-2.2,2.1,0,0-.5-.5-.7-.6.7-.5,1.3-1,2.6-1.3l.3-.2Z"/>
    <path d="M411.9,469.2c-.2.9-.4,1.7-.6,2.6-.4-.1-.6-.2-1-.4.4-.7.6-1.3,1.3-2.1l.3-.1Z"/>
    <path d="M367.3,107.7c-.6-.2-.9-.6-1.2-1,.5-.1,1.1-.4,1.6-.5-.1.4-.1.9-.4,1.5Z"/>
    <path d="M473.7,483.8c-.6.2-1.3.2-2,.1.1-.4.2-.6.4-1,.5.2,1,.4,1.6.9Z"/>
    <path d="M106.4,380c-.5-.6-.6-1.1-.9-1.6.4-.1.7-.2,1-.4,0,.8.1,1.4-.1,2Z"/>
    <path d="M712.2,238.4c1.3,0,2.3.4,3.5.7-1,0-2.5-.1-3.5-.7Z"/>
    <path d="M46.7,345.3c-.1.5-.5.7-.7,1.1-.1-.1-.4-.4-.4-.4.3-.3.6-.6,1.1-.7Z"/>
    <path d="M367.4,488.5c-.5.6-1.2,1.1-1.8,1.5-.1-.4-.2-.6-.4-1,.6-.2,1.3-.5,2.2-.5Z"/>
    <path d="M105.4,371c-.1.4-.5.6-.9.9.3-.4.5-.8.9-.9Z"/>
    <path d="M369.1,497.9c-.1-.4-.1-.9,0-1.2.1.4.1.9,0,1.2Z"/>
    <path d="M66.6,355.4c.4.6.5,1.1.6,1.7-.4-.1-.9-.1-1-.2,0-.5,0-1,.4-1.5Z"/>
    <path d="M471.9,479c-.4.6-.7,1.1-1.1,1.7-.2-.2-.5-.4-.7-.6.4-.4.7-.7,1.5-1.1h.3Z"/>
    <path d="M496.9,493.7c.4-.1.9-.1,1.2,0-.4,0-.8.1-1.2,0Z"/>
    <path d="M83.2,378.4c-.1-.9-.1-1.5-.1-2.2.2,0,.6.1.9.1-.1.8-.4,1.5-.8,2.1Z"/>
    <path d="M93,362c-.4-.1-.6-.5-.9-.9.4.3.8.6.9.9Z"/>
    <path d="M135.7,381.5c.9-.2,1.6-.2,2.2-.2,0,.4-.1.6-.1,1-.7-.2-1.5-.4-2.1-.8Z"/>
    <path d="M252.8,465.4c.4-.5.9-1.1,1.2-1.6.2.2.5.4.7.6-.4.4-.6.7-1.3,1.2-.5-.1-.6-.2-.6-.2Z"/>
    <path d="M643.6,381.1c-.1-.9.4-1.7,1.5-2.6,0,.9-.4,1.8-1.5,2.6Z"/>
    <path d="M45,324.3c.1.4.1.9,0,1.2,0-.5-.2-.9,0-1.2Z"/>
    <path d="M580.2,165c.1-.5.5-.9.9-1.1l.4.4c-.4.2-.7.6-1.3.7Z"/>
    <path d="M464.5,457.9c-1,1-1.8,1.8-3.2,2.6-.1-.6.2-1.2,1.5-2.7,1.2-.7,1.6-.6,1.7.1Z"/>
    <path d="M244.3,458.2c.6.4,1.2.7,1.8,1.2-.2.2-.4.5-.6.7-.4-.4-.7-.7-1.2-1.5-.1-.3,0-.4,0-.4Z"/>
    <path d="M759.1,264.1c1,.7,1.6,1.8,2.1,2.9-1-.2-2.1-.5-3.3-1.3.1-.7.3-.9,1.2-1.6Z"/>
    <path d="M336.9,459.2c-.6.1-1.1-.1-1.7-.4.1-.4.2-.6.4-1,.5.4,1,.8,1.3,1.4Z"/>
    <path d="M214.7,448.2c.5-.5.9-1.1,1.3-1.6.2.2.7.6.6.6-.4.4-.7.7-1.5,1.1-.1.1-.4-.1-.4-.1Z"/>
    <path d="M298.2,141.4c.6.4,1.2.9,1.8,1.2-.2.2-.5.5-.7.7-.4-.4-.6-.9-1-1.6l-.1-.3Z"/>
    <path d="M262.2,144.2c.1-.5.5-.9.7-1.1,0,0,.2.2.4.4-.4.3-.6.7-1.1.7Z"/>
    <path d="M177.6,200.5c.5-.4.9-.5,1.1-.6,0,.5-.1,1-.1,1.6-.4-.3-.8-.5-1-1Z"/>
    <path d="M71.1,381.1c-.4,0-.7-.2-.7-.5.6-.5,1.2-.9,1.7-1.1-.1.5-.4,1-1,1.6Z"/>
    <path d="M419.9,471.6c.4-.1.9-.1,1.2,0-.5,0-.9.2-1.2,0Z"/>
    <path d="M168.5,196.4c.5.9,1.1,1.8,1.6,2.7-.2.1-.6.2-.9.4-.2-.7-.5-1.6-.7-2.7v-.4Z"/>
    <path d="M429.2,470.1c.2-.5.7-.9,1.2-1.1,0,0,.4.5.5.7-.5.1-1.1.4-1.7.4Z"/>
    <path d="M175.2,195c-.6.2-1.3.1-2,.1,0-.2.1-.6.1-.9.7.1,1.3.3,1.9.8Z"/>
    <path d="M253,465.7c-.4.6-.7,1.1-1.1,1.7-.2-.2-.5-.4-.7-.6.4-.4.7-.7,1.3-1.2.3-.2.4-.1.5.1Z"/>
    <path d="M71.6,332.1s.1-.1,0,0c-.7-.2-1.6-.5-2.4-.7.4-.6.7-1.1,1.5-1.8q.4-.1.4.6c.2.9.4,1.4.5,1.9Z"/>
    <path d="M306,105.2c-.5-.1-.9-.5-1.2-.9.1-.1.4-.4.4-.4.3.4.7.8.8,1.3Z"/>
    <path d="M173.4,428.8c.6-.5,1.3-1,2-1.3.1.4.4,1,.4,1-.5.2-1.1.5-2,.6l-.4-.3Z"/>
    <path d="M88,346c.2-.1.5-.1.7-.1-.1.4-.1.6-.2,1-.2-.1-.4-.4-.5-.9Z"/>
    <path d="M347.1,487.6c-.7,0-1.5-.1-2.2-.1v-.6c.6,0,1.2.1,2,.5l.2.2Z"/>
    <path d="M38.8,343.6c.5,0,.9.2,1.1.4-.3-.1-.7-.2-1.1-.4Z"/>
    <path d="M677.4,259.5c.4-.2.7-.2,1.2-.2-.4.1-.8.2-1.2.2Z"/>
    <path d="M670.6,241.8c.1-.4.4-.6.6-1-.2.5-.3.9-.6,1Z"/>
    <path d="M34.1,338.9c-.4-.2-.6-.5-.7-.9.3.3.6.6.7.9Z"/>
    <path d="M687.1,241.7c.2.5.5,1,.7,1.5-.5.1-1,.1-1.7,0q-.2-.2.1-.4c.6-.5.8-.7.9-1.1h0Z"/>
    <path d="M162,190.3c0,.5-.2.9-.4,1.2.1-.5.2-.9.4-1.2Z"/>
    <path d="M240.7,464.3c-.5-.2-1-.4-1.5-.6,0,0,.2-.6.4-.9.4.2.7.6,1.1,1.2v.3Z"/>
    <path d="M424.8,470.9c0-.4.2-.6.5-.9l.4.4c-.3.4-.6.5-.9.5Z"/>
    <path d="M471.9,469.6c0-.4.6-.4.9-.4,0,.7-.2,1.5-.5,2.2-.1-.5-.3-1-.4-1.8Z"/>
    <path d="M251.7,452.1c.6.4,1.3.7,2,1-.1.1-.2.4-.2.5-.5-.4-1-.6-1.6-1.2l-.2-.3Z"/>
    <path d="M484.6,470.4c.2.4.2.7.2,1.2-.1-.3-.2-.7-.2-1.2Z"/>
    <path d="M352.5,483.6c.4-.1.7-.1,1.1,0-.4.2-.8.2-1.1,0Z"/>
    <path d="M511,485.1c.6.2,1.3.5,2.2,1-.6.1-1.3-.1-2.2-.6v-.4Z"/>
    <path d="M403.1,464.7c1-.2,1.6-.1,2.3,0-.4.6-.9,1.2-1.6,1.8-.6-.5-.7-1-.7-1.8Z"/>
    <path d="M79.1,349.2c.4-.5.7-1,1.2-1.5-.1.5-.2,1-.7,1.6-.3.2-.4,0-.5-.1Z"/>
    <path d="M217.4,185.4c.1.6.2,1.1.5,1.7-.4.1-.6.1-1,.2,0-.5,0-1,.4-1.7l.1-.2Z"/>
    <path d="M168.5,432.5c0-.7.1-1.5.1-2.2h.6c0,.6-.1,1.2-.5,2l-.2.2Z"/>
    <path d="M178,427.2c.1.4.1.7,0,1.1,0-.3-.1-.7,0-1.1Z"/>
    <path d="M348.1,490.2c-.2-.6-.6-1.3-1-2.3v-.4c.5.6,1,1.1,1.3,2.1-.1.4-.3.6-.3.6Z"/>
    <path d="M362.6,498.7c0,.5-.2.9-.4,1.1.1-.5.2-.9.4-1.1Z"/>
    <path d="M662.7,223.3c.4.7.9,1.5,1.2,2.2-.2.1-.6.2-.9.2-.1-.6-.1-1.2-.2-2.2l-.1-.2Z"/>
    <path d="M96.1,360.7c-.1.5-.4.6-.5.9-.1-.4-.1-.6-.2-1,.2,0,.4,0,.7.1Z"/>
    <path d="M217.4,184.2c.5.2,1,.4,1.3.6-.2.1-.6.4-1.1.6h-.2v-1.2Z"/>
    <path d="M649.1,174.9c-.6-.4-.7-.9-.9-1.5.6.1,1.3.1,2.1.5-.1.5-.3.8-1.2,1Z"/>
    <path d="M678.9,255.1c.1-.2.2-.2.5-.2-.2.1-.3.2-.5.2Z"/>
    <path d="M255,148.7c-.1.1-.2.2-.4.2.1-.1.3-.2.4-.2Z"/>
    <path d="M579.5,141.4c-.2.4-.4.7-.6,1.2.1-.2.1-.6.4-1l.2-.2Z"/>
    <path d="M373,107.9c-.2,0-.4,0-.5-.1.2-.1.4-.1.5.1Z"/>
    <path d="M174.9,205.7c-.2,0-.5-.1-.6-.4.2.2.4.3.6.4Z"/>
    <path d="M664.6,218.4c-.1.1-.2.2-.4.2.2,0,.3-.2.4-.2Z"/>
    <path d="M692.2,406.9c.6-.6,1.5-1.1,2.6-1.1.4.4.5.4.5.4-.6.4-1.2.7-2.1,1.3-.6.1-.9-.3-1-.6Z"/>
    <path d="M666.8,246.3c.2,0,0,0,0,0Z"/>
    <path d="M224.8,187c.1.2.1.4,0,.6-.1-.2-.1-.5,0-.6Z"/>
    <path d="M360.2,496.1c-.1.1-.2.2-.4.2.1-.1.3-.2.4-.2Z"/>
    <path d="M134.3,378.7c-.6-.2-1.3-.5-2.2-1l-.2-.2c.6.2,1.3.5,2.2,1l.2.2Z"/>
    <path d="M521,478.5c-.2,0-.4,0-.5-.1.2,0,.4,0,.5.1Z"/>
    <path d="M475.9,482.7c.1-.1.2-.2.4-.2-.2,0-.3.2-.4.2Z"/>
    <path d="M468.7,484.1h0Z"/>
    <path d="M348.3,490c.2.5.4,1,.5,1.6-.2-.2-.4-.5-.7-1.1,0-.3.2-.5.2-.5Z"/>
    <path d="M477.5,472.6h0Z"/>
    <path d="M93.9,370.5c.4.2.7.9,1.1,1.7v.4c-.3-.6-.6-1.1-1.1-2.1Z"/>
    <path d="M49.5,344.4c-.1.1-.2.1-.4.2.1,0,.3-.2.4-.2Z"/>
    <path d="M35.4,341.3c0,.2-.2.2-.4.4.2-.2.3-.3.4-.4Z"/>
    <path d="M172.2,423.9c-.2.4-.5.9-.6,1.2.1-.4.1-.6.5-1.1l.1-.1Z"/>
    <path d="M175.8,433.7c.2-.4.5-.9.7-1.2-.1.4-.1.6-.5,1.1l-.2.1Z"/>
    <path d="M218.3,439.1c.2-.1.5,0,.6.1-.2,0-.5,0-.6-.1Z"/>
    <path d="M255,446.7c.1-.2.4-.2.6-.2-.1.1-.2.2-.6.2Z"/>
    <path d="M237.5,448.7h0Z"/>
    <path d="M215,448.4c-.5.2-1,.4-1.6.5.2-.2.5-.4,1.1-.7.2,0,.5.2.5.2Z"/>
    <path d="M221.2,449.5c.5.1,1,.4,1.3.7-.5,0-.9,0-1.5-.1,0-.3.1-.5.2-.6Z"/>
    <path d="M135.5,385.2s-.1,0,0,0Z"/>
    <path d="M77.5,382.1h0Z"/>
    <path d="M493,463.1c-.1-.5.1-1,.2-1.3.2.2.4.6.6,1.1-.2.2-.3.2-.8.2Z"/>
    <path d="M486.8,466c0,.2-.2.2-.4.4.1-.1.3-.4.4-.4Z"/>
    <path d="M426.6,466.8c-.2.2-.5.5-.9.7-.1,0-.2-.1-.5-.1.2-.1.5-.4,1-.6h.4Z"/>
    <path d="M244.8,470.2c.2,0,0,0,0,0Z"/>
    <path d="M262.1,146.9c0-.1-.1,0,0,0Z"/>
    <path d="M290.1,139.5c.1-.1,0,0,0,0Z"/>
    <path d="M259.6,146.9c0,.1.2,0,0,0Z"/>
    <path d="M89,392.1c-.1.5-.4,1-.7,1.6-.2.1-.2,0,0-.4.3-.5.6-.9.7-1.2h0Z"/>
    <path d="M289,142c0-.1-.1,0,0,0Z"/>
    <path d="M339.8,461.9l.4-.5s0,.4-.1.5c-.2.1-.3,0-.3,0Z"/>
    <path d="M134.3,378.7l.5.4s-.4,0-.5-.1v-.3Z"/>
    <path d="M111.1,380c-.1,0-.4,0-.2,0,.1-.1.2,0,.2,0Z"/>
    <path d="M587.5,173.8c.1,0,0-.1,0,0Z"/>
    <path d="M89,388.5l.4-.5s0,.4-.1.5h-.3Z"/>
    <path d="M240.1,460h0Z"/>
    <path d="M264.2,150.9c.1.2.2.5.2.7-.1,0-.2,0-.5-.2,0-.2.3-.5.3-.5Z"/>
    <path d="M338.7,456.1c.2-.1.6.1.9.5-.5.2-.7,0-.9-.5Z"/>
    <path d="M108,386.6s-.2,0,0,0Z"/>
    <path d="M262.7,151.2c.4-.2.7-.4,1.3-.4.1.1,0,.4-.1.5s-.6,0-.9,0-.3-.1-.3-.1Z"/>
    <path d="M302.9,102.1h.2c0,.1-.2,0-.2,0Z"/>
    <path d="M169.1,427c0,.1.1,0,0,0Z"/>
    <path d="M303.1,102.2h-.2c0-.1.2,0,.2,0Z"/>
    <path d="M170.3,417.2h0Z"/>
    <path d="M695,406.2c0-.1-.1-.1,0,0,.1,0,0-.1,0,0Z"/>
    <path d="M373.4,113.9s0,.1,0,0Z"/>
    <path d="M368.5,113.9c0-.2-.1,0,0,0Z"/>
    <path d="M370.9,112.6h0Z"/>
    <path d="M168.5,432.5l-.2.5s0-.4.1-.4.1-.1.1-.1Z"/>
    <path d="M173.4,428.8l-.2.5s0-.3.2-.5h0Z"/>
    <path d="M41.9,347.5h0Z"/>
    <path d="M94.5,348.7h0Z"/>
    <path d="M89.6,349.9h0Z"/>
    <path d="M636.4,221.5c0-.1-.1,0,0,0Z"/>
    <path d="M101,228.7c-.1-.4.1-.9.2-.9.4,0,.6.1,1.2.5.1.5-.1.9-.6,1.3-.4-.1-.6-.3-.8-.9Z"/>
    <path d="M670.8,237.4s-.2-.1,0,0Z"/>
    <path d="M49.2,341.4c-.1,0,0,.1,0,0Z"/>
    <path d="M718.3,242.4c-.1.1-.2-.2-.2-.2,0,0,.5.1.2.2Z"/>
    <path d="M43.1,345h0Z"/>
    <path d="M85.9,345s-.1,0,0,0Z"/>
    <path d="M128,378.8c.1-.1-.1.4-.1.4,0,0,0-.4.1-.4Z"/>
    <path d="M176.5,198.1s-.2.2,0,0Z"/>
    <path d="M111,379.8l.4-.5s0,.5-.1.5-.3.1-.3,0Z"/>
    <path d="M58.4,322.5c-.1.4-.6.5-1,.7,0-.2-.1-.6,0-1.1.5-.2.7,0,1,.4Z"/>
    <path d="M403.4,468l-.2.5c-.1,0-.1-.4.2-.5h0Z"/>
    <path d="M248.6,468.6h0Z"/>
    <path d="M246.2,467.4h0Z"/>
    <path d="M481.6,464.3l.5.2s-.4,0-.4-.1-.1-.1-.1-.1Z"/>
    <path d="M240.7,464.3l.5.4s-.4,0-.5-.1v-.3Z"/>
    <path d="M418.7,463.7c.1,0,0-.1,0,0Z"/>
    <path d="M334.2,463.7c-.1,0,0,.1,0,0Z"/>
    <path d="M346.4,483.3s.1.1,0,0Z"/>
    <path d="M77.4,372s-.1,0,0,0Z"/>
    <path d="M367.3,491.8c.1,0,0-.1,0,0Z"/>
    <path d="M505.5,490.6h0Z"/>
    <path d="M522.6,486.9h0Z"/>
    <path d="M217.4,184.2l-.5-.2s.4,0,.4.1l.1.1Z"/>
    <path d="M81,374.4h0Z"/>
    <path d="M471.9,479l.2-.5s0,.4-.1.4l-.1.1Z"/>
    <path d="M167.9,204.4c.1,0,0-.1,0,0Z"/>
    <path d="M460.4,83.6c1,.6,1.7,1.3,2.4,2.1-1,.5-2,1-3.1,1.5.2-1.1.2-2.3.7-3.6Z"/>
    <path d="M488.3,97.8c-.6,1-1.3,1.6-2.1,2.2-.2-.7-.4-1.3-.6-2.1.8-.1,1.7-.3,2.7-.1Z"/>
    <path d="M568.9,128.4c-.4-.1-.6-.5-.9-.9.4.3.7.6.9.9Z"/>
    <path d="M519.2,104.1c.1.1.4.4.5.7-.1-.1-.2-.1-.5-.4-.2-.1-.1-.2,0-.3Z"/>
    <path d="M89.6,398.9c-.2.6-.6.9-1.1,1.2-.1-.5-.4-1.1-.5-1.6.5,0,1,0,1.6.4Z"/>
    <path d="M88.5,392.1c.4.2.1.6-.2,1.2-.9.1-1.3-.2-2-.9.5-.1,1.1-.1,2.2-.3Z"/>
    <path d="M85.9,397.6h0Z"/>
    <path d="M606.3,461.7c6.7,1.5,4.2-5.1,5.9-8.3,3.9,6.4.2,9.7-4.4,13.7-.6-2-1-3.3-1.5-5-.1-.5.1-.4,0-.4Z"/>
    <path d="M597.1,451.8c.6-.9,1.3-1.2,2.1-1.7.2.7.4,1.5.6,2.1-1,0-1.8,0-2.7-.4Z"/>
    <path d="M603,453.7c.7.2,1.1.6,1.3,1-.5.2-.9.5-1.3.7,0-.5-.1-1.1,0-1.7Z"/>
    <path d="M608.2,453.3c.4-.1.7-.1,1.2,0-.4,0-.8.1-1.2,0Z"/>
    <path d="M600.3,468.6c-.1-.4-.1-.9,0-1.2,0,.5.1.8,0,1.2Z"/>
    <path d="M592.2,472.6c.1,0,0,0,0,0Z"/>
    <path d="M515.9,499.4c.5-.2.6-.2,1,.1.6,1.2.9,2.1,1.3,3.4-.6.6-1.2.9-2.1,1.3-1.6.1-2.9,0-5.9-.4,2.5-1.7,4-2.8,5.7-4.4Z"/>
    <path d="M598.5,151.8s.1,0,0,0Z"/>
    <path d="M519,495c-.5-.2-1-.6-1.5-.9.4.1.7.2,1.3.6l.2.3Z"/>
    <path d="M519,491.8h0Z"/>
    <path d="M289.6,100.7h0Z"/>
    <path d="M286.2,101.1c-.1-.5,0-1.3.6-2.3.1.6-.1,1.4-.6,2.3Z"/>
    <path d="M285.1,103.3c-.1-.2.1-.6.6-1.2.1.3-.1.8-.6,1.2Z"/>
    <path d="M290.8,110.7c-.2.1-.2-.4-.2-.7.1-.1.2.3.2.7Z"/>
    <path d="M719.4,239.5c-1-1.3-1.5-2.3-1.8-3.8,1.2.6,2.4,1.7,3.8,3.2-.5.5-1,.7-2,.6Z"/>
    <path d="M53.4,382.2c-.1.2-.4.2-.9.1.2-.2.5-.2.9-.1Z"/>
    <path d="M618.6,454.5c.1-.5.4-1,.6-1.5,0,0,.6.2.9.4-.2.4-.6.7-1.2,1.1h-.3Z"/>
    <path d="M288,111.3c.1.1-.2.1-.2.1,0,0,.1-.2.2-.1Z"/>
    <path d="M533.1,348.1c-.4.5-.7,1-1.7,1.8-2.9,3.2-7.8,7.2-7.2,8.2,3.1,5.4-2.2,7.2-3.4,10.5,0,0,.1.1-.2.1-1.1.6-1.8,1.1-2.6,1.6,0,0-.2.1-.6.4-.7,1.6-1.1,2.8-1.5,4-.4,0-.7.1-1.5.9-1.5,2.1-2.6,3.7-3.7,5.3-5.3,7.2-10.5,14.6-15.9,21.7-.9,1.1-2.4,1.7-3.7,2.6-.1-.1-.2-.2-.2-.4.1-.4.4-.7,1-1.6.1-.7-.1-1-.4-1.1.2.4.4.7.6,1.1-1.2-1.1-2.4-2.1-4.8-4.2-.2.2-1.8,1.5-3.1,2.8-1.7,2.1-15.3,6.8-18,6.2-.6-.1-1.5.6-2.3,1-7.5,3.7-14.6,8.2-22.4,10.9-13.9,4.8-28.4,6.7-43.3,7-17,.2-33.6-2.2-49.9-6-12.4-2.8-23.7-8.8-33.1-18.3-5.4-5.4-12.7-8.8-19.1-13.1-1.1-.7-2.1-1.8-3.1-2.8-2.1-2.2-4.8-6.7-6-6.4-4,1.2-4.2-1.7-5.6-3.4-2.2-2.6-4.9-4.9-6.6-7.7-1.8-3.1-2.6-6.8-4.2-10.2-2.4-5.1-5.3-10-8-15.7v-.7l-.4.4c-.2-.1-.4-.1-.4-1-.4-9.2-1-17.5-1.5-25.8h-1.8c-.6,1-1.3,2-2,2.8-1.1-3.4-.6-6.6-.9-9.7-.2-4.3-1.1-8.6-1.7-12.8.1-5.3.1-10.5.4-15.8,0-.6,1.5-1,2-1.7.6-1,.9-2.1,1.2-3.8,0-.6.4-1,.4-1,.7-.9,2.1-2.2,2-2.6-2.9-5.7,1.2-10.8,1.6-16.1,0-.9,1.2-1.7,1.7-2.7,1.1-2.1,2.3-4,3.1-6.2,1-3.2,1.3-6.6,2.4-9.9.6-1.8,2.3-3.3,3.2-5.1,7.5-14.8,19.2-25.3,33-34.2.7,1,1.5,1.8,1.5,1.7,7.3-3.7,14.7-6.6,21-11.1,1.7-1.2,3.3-2.7,5.4-3.8,4.6-2.4,8.7-5.9,13.1-8.9,4.5,5.6,10.8-1.5,16.8,1-5.5,4.9-14.3,4.9-17,12.5,17.4-2.3,34.1-4.6,50.9-6.8-.2-.4-.4-.9-1-2.1,2.1,1.1,3.4,1.7,4.8,2.4.2-.2.5-.5.9-.7-.9-1.1-1.7-2.2-3.7-4.6,3.9-1,7.2-2.2,10.5-2.4,7.8-.5,15.7-.7,23.4-.7,3.5,0,7.2.9,11,1.3-.6,1.6-1,2.6-1,2.4,3.2.9,6.2,1.3,8.9,2.6,8,3.5,16,7.1,23.6,11.4,6.5,3.7,12,9.3,18.7,12.1,6.8,2.8,8.8,8.8,12,13.8,5,8.1,8.6,17,12.8,25.6,1.1,2.2,2.3,4.3,3.4,6.5.1.2.6.2,1,.2,0-.2-.1-.4-.1-.6-.2.4-.9.9-.9,1,1.8,3.3,3.8,6.6,5.7,10.8.1,1.8.1,2.7-.4,3.7-1,0-1.5-.1-2.1-.2-.2-.1-.4-.1-.5-.2.1.2.1.5.2,1.1-1.6,2.8-3.3,5.3-5,7.8,1.7,1.7,3.4,3.3,5.3,5.1.4.6.6.9,1,1.5.1.7.1,1,.2,1.5,0,.1,0,.5-.2.6-.6.4-.9.7-1.1,1.3,2,3.8,4,7.3,5.9,10.8-.5.2-.7.4-1,.6.1,0,.4.2.5.1.4-.2.6-.5,1.5-.7,1.7-.1,2.8-.1,4.2,0,.1,1,.1,1.7-.2,2.4-.4,1-.2,1.8-.2,2.9,0,.2-.1.7-.5.7-.6.2-.7.5-1,.7.4.2.9.4,1.2,1-.2.5-.4.6-1.1.9-1.3.9-2.3,1.6-3.2,2.4,1.2,1,2.3,1.8,3.3,3.2-.4,2.4-5.6,3.7-1.5,6.8,1.1,1.5,3.7,2.6,3.5,3.3-.6,4.5-1.8,9.1-3.1,13.5-.6,2.2-1.5,4.2-2.2,6.4.6.2,1.1.4,1.7.6.7-1.8,1.6-3.7,2.3-5.5.2.1.5.2.7.4-.3,5-.9,9.8-1.7,14.4M367.5,217.3c0,.1-.1.2-.1.4.2-.1.5-.2,1-.6,0-.1.1-.2.1-.4-.2.2-.5.3-1,.6M376,221.3c0,.5.1.9.1,1.3.1-.6.2-1.1.7-1.8,0-.1.1-.2.1-.2-.1,0-.3.2-.9.7M278.3,292.6c-.4-.1-.6-.1-1-.2.4.2.9.5,1.2,1.3.4,1.2.6,2.4,1,3.7.4-.1.9-.2,1.2-.2-.2-1.3-.6-2.7-.2-4.2.1-.7.2-1.5.4-2.2-.4,0-.7-.1-1-.1-.1.7-.2,1.5-.9,2.3.1-.1-.4.1-.7-.4M349.9,399.6v4.2c.5-.1,1-.1,1.5-.2-.2-1.3-.4-2.6-.4-4v-.4c.1-.2-.4.2-1.1.4M337.3,400.7l.1-.7c.7-1.7,1.6-3.5,2.6-5.4v-.5l-1,1c-1.8,1.5-3.5,2.9-5.7,3.7-10.2-6.2-20.3-12.5-30.6-18.7.1,2.2.9,4,2.2,5.1,4.9,4.2,11.4,6.5,14.4,12.8.6,1.3,2.9,1.8,4.6,2.7,2.4,1.2,4.8,2.6,7.3,3.3,3.8,1.1,7.7,1.8,11.5,2.7.2-.7.4-1.6.6-2.3-1.7-.9-3.3-1.8-5.4-3.2,0-.1-.2-.4-.6-.5M297.4,377.2c-.1.2-.2.4-.4.6,0-.2.1-.5-.6-1-2.9-4.8-6-9.5-9.8-15.5-.8,8.5,4.3,15.1,10.8,15.9M414.2,202.3h-.4s.5.2.5,1.2c1.7,2.6,3.4,5.1,4.9,7.6,2.6-3.4,4.4-5.9,6.4-8.4-.5-1.1-1.5-3.1-2.2-4.9-2.8.4-5.6.9-9.4,1.3,2.8,1.2,4.5,2.1,7.6,3.4-3.3,0-5.3,0-7.4-.2M505.9,363.9c1.6-1.3,3.1-2.6,4.6-3.9.4.2.7.6,1,.9-.6,1.7-1.2,3.4-1.8,5.1,8.9-5.6,12.6-14.3,15-25.3-2.3,2-3.5,2.8-4.6,3.9-2.8,2.6-5.6,5.3-8.8,8.2,0,0-.4.4-1.1.7-2,3.3-4,6.5-6.6,10.4-.4.9-.7,1.7-1,2.6.2.1.6.2.9.4.4-.9,1-1.8,2.4-3M378.7,247.7v17.2c.1,0-.6.2-1,0-9.9-6.2-19.8-12.6-29.8-18.6-5.5-3.2-11.5-5.7-17.4-8.2-2.1-.9-4.6-.6-6.5-.9-.4,2-.7,4.2-1,6.2-.5,3.3-.4,6.7-1.6,9.7-2.4,6.1,3.8,7.2,6,10.3,3.5,5,8.7,9.2,13.6,13,6.7,5.1,13.9,9.5,22,14.9-2.4.7-3.1,1.1-3.8,1.1-18.7,1.1-36.1,4.8-50.6,18.1-4.5,4-5,5.5-1.7,10.2,2.1,2.8,3.7,4.3,7.1,4.2,8.9-.5,18-1,26.9-1.5,4.9-.2,9.9-.6,14.8-1.1.9-.1,1.6-1.3,2.7-2.4,1,.6,2.3,1.6,4.4,2.8-3.4,4.2-6.7,7.7-9.4,11.7-3.2,4.6-6,9.7-8.4,14.7-1.1,2.3-.6,5.4-1.6,7.8-1.1,2.6-3.1,4.8-4.6,7.2-.4-.1-.6-.4-1-.5.1-1.1.1-2.2.2-3.4-.7-.1-1.5-.2-2.3-.4-.6,3.5-2.6,7.7-1.5,10.6,1.2,3.2,5.1,5.6,8.2,8,1.3,1,3.4,1.2,5.1,1.1,2.2-.1,5.1-.4,6.2-1.7,5.6-7,10.6-14.4,16.1-21.7,4.4-5.7,9.2-11.1,13.8-16.8.7,2.7,0,4.5.2,6.2,1,8.8,2.3,17.6,3.4,26.3.4,3.2.9,6.4,1,9.5.1,4.3-.1,8.6-.2,14.1,1.5.4,4.6,2,7.8,2,4.4-.1,8.7-1.6,13.1-2.2,3.1-.5,6.6-3.2,6.5-5.7-.6-15.9-1.3-31.7-2-48.1,1.5-.2,3.3-1.1,4.3-.5,4.5,2.8,8.9,5.9,13.3,8.9,8.8,6.1,17.6,12.4,26.5,18.5,1.1.7,2.7.9,4,1,9.2,1.3,12.7-.9,9.4-11.7-2.9-9.7-10.2-16.9-18.6-22.6-1.1-.7-1.3-2.7-2.3-4.6-4.4-2.8-9.5-6.1-15-9.7,1-1.2,1.3-2,1.8-2,10.4-.2,20.8-.9,31.1-.7,13,.2,17.9.2,20.5-12.1,1.2-5.6-2.9-14.2-7.7-14.3-10.2-.2-19.6-6.2-30.5-3.2-3.9,1.1-9.2-2.4-13.8-3.9,2.4-2.6,4.8-5,7.2-7.3,1.5-1.3,3.4-2.2,4.9-3.7,8-7.3,15.2-15.7,24-21.8,4.9-3.4,5-6.6,4-10.6-.7-3.2-2.8-6.2-4.9-8.9-2.6-3.5-6-4.4-10-2-6.6,4.2-13.5,8-19.9,12.2-2,1.3-3.9,3.4-4.5,5.6-1.3,4.5-3.4,7.8-8.6,9.2-.6-1.5-1.1-2.8-2.2-5.3-3.4,2.8-7,4.6-8.9,7.6-2.7,4-5.3,6.7-10.4,5.3.4-2.1.9-4.3,1.1-6.4,1-8.7,2.6-17.4,2.6-26.1,0-2.9.7-6,.1-9.1-1.1-5.7-1.7-11.5-2.4-18,.1-1.6.4-3.2.5-4.9h-1.6c-.5,1-1.1,2-2.3,3.3-1.8.4-3.5.5-5.4,1.1-5,1.5-11.5-2.8-15,3.7-1.8,3.3-2.8,7.1-4.2,10.6-1.1,2.8-2.1,5.6-3.2,8.8,3.7,2.6,3.1,7.3,1.1,12-.6-.7-1.2-1.3-1.7-1.8-1.6,2.1-2.9,4-4.3,5.9,1.2,1.6,2.4,3.1,3.4,4.4.9-.4,1.8-1,2.9-.6M312.1,213.4c2.3-3.9,4.6-7.8,7-11.7-.2-.2-.6-.4-.9-.6-4.2,2.3-8.3,4.5-12.4,6.7,2.2,2.7,0,2.8-2.9,4-5.4,2.2-11.3,4.4-15,8.4-4.3,4.5-6.6,11-9.3,16.9-1.2,2.8-1.3,6.1-2,9.1,5.7-5.6,10-11.3,14.9-16.5,2.9-3.2,7.3-8.4,10-8,7.4,1.6,7.1-4.8,10.6-8.3M271.3,302.8c-.4-4.9-.7-9.7-1.2-15-.9,1-2,1.6-2.2,2.6-2.9,10,2.3,19.4,2.3,29.4,0,.2.2.4.2.6.6,2.4,1.7,5,1.7,7.5-.1,7.1,2.9,17.7,7.5,23.7.4-.5,1.1-1.1,1-1.5-1.2-4.9-2.8-9.8-3.7-14.8-2.1-10.6-3.8-21.1-5.6-32.5M507.1,273.5c-.7,4-1.5,8.2-2.4,13.3,1.8-1.3,3.9-2.1,4.4-3.4,2.6-6.4,1.3-23.6-1.8-28-.1,5.7-.1,11.4-.2,18.1M383.7,420.8c-.9-1-1.5-2.7-2.4-2.8-2.3-.5-5.4.7-6.8-.4-3.4-2.4-6.4-1.5-9.4-.5,4.4,6.8,11.4,4,18.6,3.7M479.8,392.1c-5.6,4.2-11.3,8.4-16.9,12.6,8.2-.5,13.7-5,16.9-12.6M517.1,329.1c.5,1.7,1,3.4,1.5,5.1.4,0,.7,0,1.1-.1.5-5.5,1-11,1.6-16.5-.7-.1-1.3-.2-2.1-.4-.6,3.7-1.3,7.4-2.1,11.9M491.9,227.1c3.2,6,6.4,12.1,9.5,18.1,1-7.9-4-12.7-9.5-18.1M349.4,409.5c-1.2-1.6-2.4-3.1-4.3-5.5-.6,2.6-.9,3.9-1.2,5.3-.4,1.3-1,2.6-1.7,4.8,3.1-1.7,5.1-2.8,7.2-4.6M312.8,298.6c.6,1,1.2,2,2,3.2,1-1.1,1.7-2,3.7-4.2-3,.2-4.6.4-5.7,1M351.6,213.1c.5.1.9.2,1.3.2,0-.2.1-.5,0-.6-2.3-.7-4.5-1.3-6.8-2.1-.1.7-.1,1.3-.2,2.1,1.7,0,3.4,0,5.7.4M373.1,221.7c-.1-1.1-.4-2.2-.5-3.4-1.2.5-2.4,1-4.5,1.8,2.1.9,3.2,1.3,5,1.6M388.9,419.9c-.2-.5-.4-1.1-.6-1.6-.5.5-1.1,1-1.6,1.5.5.2,1.1.4,2.2.1M340.7,213.2c.6-.2,1.2-.5,1.8-.7-.1-.4-.2-.6-.5-1-.4.3-1,.7-1.3,1.7M283.6,287.2h-2.4c.1.5.2.9.4,1.3.7-.2,1.6-.5,2-1.3M347.8,397.4c.2-.9.5-1.7.7-2.6-.4,0-.9,0-1.2-.1,0,.7,0,1.5.5,2.7M352.1,206.6c.2.9.5,1.8.7,2.7.2-.1.6-.2.9-.2-.5-1.1-.9-2-1.6-2.5M412.9,212.9c.1.4.1.9.2,1.2.2-.3.3-.7-.2-1.2M316.5,288.5c.2.5.4,1.1.6,1.6.2-.1.6-.2.9-.4-.3-.3-.6-.7-1.5-1.2M313,290.5c.1,0,.4.1.5.1.1-.1.4-.4.2-.5-.2-.5-.5-1-.7-1.3,0,.3-.2.8,0,1.7M419.1,195.4c-.5-.1-1.1-.2-1.6-.4,0,.4,0,1,.1,1,.7-.1,1.2-.1,1.5-.6M399.8,417.2c-.5-.1-.9-.1-1.3-.2.3.2.7.5,1.3.2M424.5,207.6c.1-.1.2-.2.4-.4-.1,0-.3.1-.4.4M390.9,422.6c-.2.1-.5.1-.6.2.1,0,.3,0,.6-.2M527.5,305c.1,0,.1.2,0,0M405.2,424.4s.1.2,0,0M346.5,400.2s0-.1,0,0M416.1,220.3s.1-.1,0,0Z"/>
    <path d="M253.8,297.2c1,3.8,1.8,8.1,2.1,12.4.2,3.1-.2,6.2.9,9.7.6-1,1.3-2,2-2.8h1.8c.6,8.3,1.1,16.8,1.5,25.6-1.3-5.7-2.3-12-3.4-18.2-3.7-.6-6.1-1.2-5.3-6.4.9-6.6,0-13.3.4-20.3Z"/>
    <path d="M530.6,294.3c-2.1-3.5-4.3-7-5.9-10.9.7-.6,1-1,1.1-1.3,0,0,0-.4.4-.7.7-1.1,1.1-1.8,1.3-2.6-.6.2-1.3.5-2,.7-.4-.2-.6-.5-.9-1.5,1-4.4,2.1-8.1,3.2-11.7,0,0,.2.5.4,1.2.6,5.4,1.1,10,2,14.6.1.7,2.7.9,4.2,1.3v1.2c.4,2.1.7,3.4,1.1,4.9,0,.5,0,1.1-.1,2.2v2.3c-1.1.1-2.2.1-3.9.2l-.9.1Z"/>
    <path d="M527.8,266c-1.1,4-2.2,7.7-3.3,11.9-1.8-1.2-3.4-2.8-5.3-4.5,1.7-2.6,3.3-5,5.1-8,.1-.5.4-.6.4-.6.5,0,1.1.1,2.2.2.6,0,1,.1,1,.1-.1.2-.1.3-.1.9Z"/>
    <path d="M696.8,323.5c3.4-4,7-8,10.4-12l2.2,2.2c-3.7,3.4-7.5,6.8-11.7,10.2-.5,0-.9-.4-.9-.4Z"/>
    <path d="M656.8,363.9c2.4-2.6,4.3-5,6.4-7.3,1.5-1.6,3.3-3.1,5.9-3.7-4.4,4.8-8.9,9.4-13.3,14.2-.5-.5-.9-.9-1.3-1.3.6-.6,1.2-1.2,2.3-1.9Z"/>
    <path d="M614.2,393.4c2.2-.2,4.2-.4,6.1-.5-1.6,5.1-3.7,6.1-8.9,3.7.8-1.4,1.6-2.3,2.8-3.2Z"/>
    <path d="M623.9,387c1.3.2,2.4.5,3.7.7q-3.1,4-6.7,2-.2-.4.2-.4c1.1-.6,1.8-1.3,2.4-2.1,0,0,.3-.2.4-.2Z"/>
    <path d="M511.1,381c.6-1.6,1.6-3.2,3.1-5-.6,1.6-1.6,3.3-3.1,5Z"/>
    <path d="M528.1,264.8c-.4.2-.7.1-1,.1-.2-1-.2-1.8-.1-3.3.5.8,1,1.9,1.1,3.2Z"/>
    <path d="M257.4,275.1c-.6-1-1-2.3-1.3-3.5.5-.1,1-.2,1.3-.4.1.9.4,1.6.5,2.8.1.5-.2,1-.5,1.1Z"/>
    <path d="M518.2,370.6c.4-.6,1.1-1.2,2.1-1.8-.2.6-1,1.3-2.1,1.8Z"/>
    <path d="M623.2,387.2c-.4.6-1,1.3-2.1,2,.2-.6,1-1.2,2.1-2Z"/>
    <path d="M538.4,312.6c-.2-.1-.2-.4-.2-1,.1.2.3.5.2,1Z"/>
    <path d="M262.4,343.2l.4-.4s0,.2-.1.2c-.3.3-.3.2-.3.2Z"/>
    <path d="M72.1,331.8c-.6-.2-.9-.6-1-1.8.5,0,1,.9,1,1.8Z"/>
    <path d="M697.3,324.1c-.2.4-.7.5-1.1.6,0-.2,0-.6.2-1.1.4-.1.8.3.9.5Z"/>
    <path d="M499.1,463.1h-1.2c.6-.6,1.5-1.2,2.3-1.7-.2.5-.6,1.1-1.1,1.7Z"/>
    <path d="M498.8,466.5c-.5.1-.6-.2-.2-.7.2-.3.2.3.2.7Z"/>
    <path d="M114.1,373.2h0Z"/>
    <path d="M598.5,412.2s-.2.1,0,0Z"/>
    <path d="M599.7,408.7c.1,0,0-.2,0,0Z"/>
    <path d="M706.5,233.4c-.5-.2-.7-.9-1-1.5.5,0,1,0,1.6.4.1.5-.1.6-.6,1.1Z"/>
    <path d="M65.1,364.6h0Z"/>
    <path d="M684.3,408c-1.5,1.7-3.3,3.4-5.4,5,1.4-1.7,3.2-3.2,5.4-5Z"/>
    <path d="M678.2,412.8c.2.5,0,.9-.5,1.3-.2-.3-.1-.8.5-1.3Z"/>
    <path d="M76.8,339.2c-.5,0-.9-.2-1.1-.4.3,0,.7.1,1.1.4Z"/>
    <path d="M686.9,241.8c.1.2-.1.5-.7,1-.2-.3.1-.6.7-1Z"/>
    <path d="M86.6,364l-.2.5s0-.4.1-.5h.1Z"/>
    <path d="M420.5,467.1c.5-.1.6.2.1.7-.1.2-.1-.4-.1-.7Z"/>
    <path d="M414.4,202.5h7.1c-3.1-1.3-4.8-2.2-7.6-3.4,3.9-.6,6.6-1,9.4-1.3.9,1.7,1.7,3.7,2.2,4.9-1.8,2.6-3.7,4.9-6.4,8.4-1.6-2.3-3.2-5-4.9-8.1l.2-.5Z"/>
    <path d="M378.7,240.3c.4,1.8.4,3.7.1,5.9-1.1,1.1-2.1,1.8-2.9,2.4-1-1.2-2.2-2.7-3.4-4.4,1.3-1.8,2.7-3.8,4.3-5.9.3.6.9,1.3,1.9,2Z"/>
    <path d="M349.4,409.9c-2.1,1.5-4.2,2.6-7.2,4.3.7-2.2,1.3-3.4,1.7-4.8.4-1.3.6-2.7,1.2-5.3,1.9,2.4,3.1,3.9,4.3,5.8Z"/>
    <path d="M312.7,298.3c1.3-.4,2.8-.5,5.7-.7-1.8,2.2-2.7,3.1-3.7,4.2-.6-1.2-1.2-2.1-2-3.5Z"/>
    <path d="M337.4,400.3c-1.2.2-2.3.1-3.5-.5,1.6-1.8,3.4-3.4,5.5-5,.4-.2.5-.1.5-.1-.9,1.7-1.6,3.4-2.5,5.6Z"/>
    <path d="M351.3,212.9c-2-.1-3.7-.1-5.4-.1.1-.7.1-1.3.2-2.1,2.3.6,4.5,1.3,6.8,2.1v.6c-.4-.2-.9-.2-1.6-.5Z"/>
    <path d="M408.1,206.2c-.9-.2-1.7-.9-2.6-1.8.5-1.5,1-2.3,1.5-3.3h1.6c0,1.6-.2,3.2-.5,5.1Z"/>
    <path d="M372.8,221.7c-1.5-.4-2.6-.7-4.6-1.6,2.1-.9,3.3-1.3,4.5-1.8.1,1.2.2,2.3.1,3.4Z"/>
    <path d="M350.9,399.6c.2,1.3.4,2.6.6,3.9-.5.1-1,.1-1.5.2,0-1.3,0-2.7.4-4.2.4,0,.5.1.5.1Z"/>
    <path d="M388.6,420.2c-.9,0-1.3-.1-2-.4.5-.5,1.1-1,1.6-1.5.4.6.5,1.1.4,1.9Z"/>
    <path d="M340.5,212.8c.4-.6,1.1-1.1,1.7-1.5.1.4.2.6.5,1-.6.4-1.2.6-2.2.5Z"/>
    <path d="M279.9,293.2c.2,1.3.6,2.7.9,4-.4.1-.9.2-1.2.2-.4-1.2-.6-2.4-1-4v-.4s.5-.1.9,0c.3.1.4.2.4.2Z"/>
    <path d="M283.9,287.4c-.6.5-1.5.9-2.4,1.1-.1-.5-.2-.9-.4-1.3.8,0,1.7,0,2.8.2Z"/>
    <path d="M347.6,397.2c-.2-1-.4-1.7-.4-2.4.4,0,.9,0,1.2.1-.1.8-.3,1.6-.8,2.3Z"/>
    <path d="M525.4,280c.6-.7,1.3-1,2-1.2-.4.7-.7,1.5-1.5,2.3-.3-.1-.3-.4-.5-1.1Z"/>
    <path d="M352.2,206.3c.6.7,1,1.7,1.3,2.7-.2.1-.6.2-.9.2-.1-.9-.4-1.8-.4-2.9Z"/>
    <path d="M279.7,292.9c0-.9.1-1.6.2-2.3.4,0,.7.1,1,.1-.1.7-.2,1.5-.7,2.3-.3.2-.4.1-.5-.1Z"/>
    <path d="M413.1,212.9c.1.4.1.9,0,1.2,0-.3-.1-.8,0-1.2Z"/>
    <path d="M504.9,364c-.4,1.1-1,2-1.6,2.8-.2-.1-.6-.2-.9-.4.4-.9.7-1.7,1.3-2.9.6-.1.8.1,1.2.5Z"/>
    <path d="M316.8,288.7c.6.4,1,.9,1.2,1.2-.2.1-.6.2-.9.4-.1-.7-.3-1.2-.3-1.6Z"/>
    <path d="M312.8,290.2c0-.6.1-1.1.2-1.5.2.5.5.9.7,1.3,0,.1-.1.4-.2.5,0,.1-.3,0-.7-.3Z"/>
    <path d="M419.3,195.7c-.5.2-1,.4-1.6.2-.1,0-.1-.6-.1-1,.6.2,1.1.4,1.7.8Z"/>
    <path d="M399.7,417.5c-.5,0-.9-.2-1.1-.4.4,0,.7.1,1.1.4Z"/>
    <path d="M376.5,220.9c-.1.6-.2,1.1-.4,1.7,0-.5-.1-.9.1-1.6l.3-.1Z"/>
    <path d="M424.5,207.4c.1-.2.2-.2.4-.2-.1.1-.3.2-.4.2Z"/>
    <path d="M297.2,377.1c0,.2-.1.5-.1.7.1-.2.2-.3.1-.7h0Z"/>
    <path d="M390.9,422.7c-.2.1-.5.1-.6,0,.1,0,.3-.1.6,0Z"/>
    <path d="M278.6,293.1c-.4-.2-.9-.5-1.2-.7.4.1.6.1,1.1.5l.1.2Z"/>
    <path d="M534.4,300.4c.7.1.9.5.5,1.1-.6,0-1.1-.2-1.5-.4.1-.2.4-.3,1-.7Z"/>
    <path d="M530.6,294.3c-.2.2-.5.5-.9.7-.1,0-.2-.1-.5-.1.2-.2.5-.4,1-.6h.4Z"/>
    <path d="M527.6,305.2s0-.2,0,0Z"/>
    <path d="M525.4,282.1c.2.2,0,.6-.6,1-.2-.3,0-.7.6-1Z"/>
    <path d="M339.8,394.5l.4-.5s0,.5-.1.5c-.2.2-.3.1-.3,0Z"/>
    <path d="M524.3,265c-.1-.1-.2-.4-.2-.6.1,0,.2,0,.5.2,0,.2-.3.3-.3.4Z"/>
    <path d="M405.2,424.6c.1,0,0-.2,0,0Z"/>
    <path d="M338.4,401.6c-.2.1-.6,0-1-.5.3-.3.5,0,1,.5Z"/>
    <path d="M491.9,403.4c-.1-.4-.4-.7-.6-1.1.2.1.5.4.6.7-.2.3-.1.4,0,.4Z"/>
    <path d="M350.8,399.5l.4-.5s0,.4-.1.5c-.2.1-.3,0-.3,0Z"/>
    <path d="M346.5,400.1s0,.1,0,0Z"/>
    <path d="M416.2,220.3c0-.1-.1,0,0,0Z"/>
    <path d="M376.5,220.9c.1-.1.4-.2.5-.4,0,.1-.1.2-.4.4h-.1Z"/>
    <path d="M368,217.3c-.2.1-.5.2-.6.4,0-.1.1-.2.4-.5.1,0,.2.1.2.1Z"/>
    <path d="M367.9,217.2c.1-.1.4-.2.6-.4,0,.1-.1.2-.2.5-.3,0-.4-.1-.4-.1Z"/>
    <path d="M414.4,202.5l-.5-.2s.4,0,.4.1l.1.1Z"/>
    <path d="M511.5,352.5c0,.2-.2.7-.5.9-.1-.3.2-.6.5-.9Z"/>
  </g>
</svg>